<svg xmlns="http://www.w3.org/2000/svg" xmlns:xlink="http://www.w3.org/1999/xlink" id="Layer_1" viewBox="0 0 390.206 390.206" xml:space="preserve"><rect x="60.703" y="21.818" style="fill:#FFFFFF;" width="234.15" height="346.828"></rect><path style="fill:#FFC10D;" d="M256.323,267.863c-5.947,0-10.861-4.849-10.861-10.861c0-5.947,4.848-10.861,10.861-10.861h16.808 v-21.657h-38.465c-5.947,0-10.861-4.848-10.861-10.861c0-5.947,4.848-10.861,10.861-10.861h38.465V43.539H82.36v303.515h190.772 v-79.192H256.323z"></path><g>	<path style="fill:#194F82;" d="M305.648,0.162H49.842c-5.947,0-10.861,4.848-10.861,10.861v43.313H10.861  C4.913,54.335,0,59.184,0,65.196s4.848,10.861,10.861,10.861h28.186v28.186H10.861C4.913,104.242,0,109.091,0,115.103  c0,6.012,4.848,10.861,10.861,10.861h28.186v138.214H10.861C4.913,264.178,0,269.026,0,275.038c0,5.947,4.848,10.861,10.861,10.861  h28.186v28.186H10.861C4.913,314.085,0,318.933,0,324.945s4.848,10.861,10.861,10.861h28.186v43.378  c0,5.947,4.848,10.861,10.861,10.861h255.741c5.947,0,10.861-4.848,10.861-10.861V10.44C316.509,5.01,311.596,0.162,305.648,0.162z   M294.853,368.711H60.703V21.818h234.15L294.853,368.711L294.853,368.711z"></path>	<path style="fill:#194F82;" d="M379.345,5.01h-29.802c-5.947,0-10.861,4.848-10.861,10.861s4.848,10.861,10.861,10.861h18.941  v49.325h-18.941c-5.947,0-10.861,4.848-10.861,10.861c0,5.947,4.848,10.861,10.861,10.861h29.802  c5.947,0,10.861-4.848,10.861-10.861V15.871C390.206,9.923,385.358,5.01,379.345,5.01z"></path>	<path style="fill:#194F82;" d="M379.345,139.992h-29.802c-5.947,0-10.861,4.848-10.861,10.861s4.848,10.861,10.861,10.861h18.941  v49.325h-18.941c-5.947,0-10.861,4.848-10.861,10.861c0,5.947,4.848,10.861,10.861,10.861h29.802  c5.947,0,10.861-4.848,10.861-10.861v-71.046C390.206,144.84,385.358,139.992,379.345,139.992z"></path>	<path style="fill:#194F82;" d="M177.778,189.317c31.418,0,57.471-30.319,57.471-67.749s-25.471-67.749-57.471-67.749  c-31.418,0-57.471,30.319-57.471,67.749C120.307,159.515,145.778,189.317,177.778,189.317z M177.778,76.057  c19.523,0,35.749,20.622,35.749,46.093s-15.709,46.093-35.749,46.093s-35.749-20.622-35.749-46.093S157.737,76.057,177.778,76.057z  "></path>	<path style="fill:#194F82;" d="M227.62,296.63H127.354c-5.947,0-10.861,4.848-10.861,10.861s4.848,10.861,10.861,10.861H227.62  c5.947,0,10.861-4.848,10.861-10.861S233.568,296.63,227.62,296.63z"></path></g><g>	<polygon style="fill:#56ACE0;" points="349.543,76.057 368.549,76.057 368.549,26.731 349.543,26.731 349.543,26.731  "></polygon>	<polygon style="fill:#56ACE0;" points="349.543,210.974 368.549,210.974 368.549,161.649 349.543,161.649 349.543,161.649  "></polygon>	<path style="fill:#56ACE0;" d="M177.778,76.057c-19.523,0-35.749,20.622-35.749,46.093s15.709,46.093,35.749,46.093  s35.749-20.622,35.749-46.093S197.301,76.057,177.778,76.057z"></path></g></svg>