<svg xmlns:dc="http://purl.org/dc/elements/1.1/" xmlns:cc="http://creativecommons.org/ns#" xmlns:rdf="http://www.w3.org/1999/02/22-rdf-syntax-ns#" xmlns:svg="http://www.w3.org/2000/svg" xmlns="http://www.w3.org/2000/svg" xmlns:xlink="http://www.w3.org/1999/xlink" xmlns:sodipodi="http://sodipodi.sourceforge.net/DTD/sodipodi-0.dtd" xmlns:inkscape="http://www.inkscape.org/namespaces/inkscape" width="325.19489" height="327.88647" id="svg2" sodipodi:version="0.32" inkscape:version="0.46" sodipodi:docname="lente2.svg" inkscape:output_extension="org.inkscape.output.svg.inkscape" style="enable-background:new" inkscape:export-filename="/home/roger/mis-dibujos/open/lente2.png" inkscape:export-xdpi="90" inkscape:export-ydpi="90"><defs id="defs4"><linearGradient inkscape:collect="always" id="linearGradient3569"><stop style="stop-color:#ffffff;stop-opacity:1;" offset="0" id="stop3571"></stop><stop style="stop-color:#ffffff;stop-opacity:0;" offset="1" id="stop3573"></stop></linearGradient><linearGradient inkscape:collect="always" id="linearGradient3423"><stop style="stop-color:#ffffff;stop-opacity:1;" offset="0" id="stop3425"></stop><stop style="stop-color:#ffffff;stop-opacity:0;" offset="1" id="stop3427"></stop></linearGradient><linearGradient id="linearGradient3378"><stop style="stop-color:#000000;stop-opacity:1;" offset="0" id="stop3380"></stop><stop style="stop-color:#f0ede9;stop-opacity:1;" offset="1" id="stop3382"></stop></linearGradient><linearGradient id="linearGradient3336"><stop id="stop3338" offset="0" style="stop-color:#eeeeec;stop-opacity:1;"></stop><stop style="stop-color:#eeeeec;stop-opacity:0.49803922;" offset="0.1569009" id="stop3340"></stop><stop id="stop3342" offset="1" style="stop-color:#eeeeec;stop-opacity:0;"></stop></linearGradient><linearGradient id="linearGradient3314"><stop style="stop-color:#eeeeec;stop-opacity:1;" offset="0" id="stop3316"></stop><stop id="stop3334" offset="0.5" style="stop-color:#eeeeec;stop-opacity:0.49803922;"></stop><stop style="stop-color:#eeeeec;stop-opacity:0;" offset="1" id="stop3318"></stop></linearGradient><linearGradient inkscape:collect="always" id="linearGradient3302"><stop style="stop-color:#001cd0;stop-opacity:1;" offset="0" id="stop3304"></stop><stop style="stop-color:#001cd0;stop-opacity:0;" offset="1" id="stop3306"></stop></linearGradient><filter inkscape:collect="always" id="filter2428"></filter><linearGradient inkscape:collect="always" xlink:href="#linearGradient3378" id="linearGradient3476" gradientUnits="userSpaceOnUse" x1="-89.439186" y1="298.02557" x2="-59.691933" y2="258.89716"></linearGradient><linearGradient inkscape:collect="always" xlink:href="#linearGradient3378" id="linearGradient3480" gradientUnits="userSpaceOnUse" x1="-89.439186" y1="298.02557" x2="-59.691933" y2="258.89716"></linearGradient><radialGradient inkscape:collect="always" xlink:href="#linearGradient3302" id="radialGradient3531" gradientUnits="userSpaceOnUse" gradientTransform="matrix(1,0,0,0.9800026,0,5.6394711)" cx="-81.390289" cy="282.01022" fx="-81.390289" fy="282.01022" r="35.702198"></radialGradient><radialGradient inkscape:collect="always" xlink:href="#linearGradient3302" id="radialGradient3533" gradientUnits="userSpaceOnUse" gradientTransform="matrix(1,0,0,0.9800026,0,5.6394711)" cx="-81.390289" cy="282.01022" fx="-81.390289" fy="282.01022" r="35.702198"></radialGradient><linearGradient inkscape:collect="always" xlink:href="#linearGradient3336" id="linearGradient3535" gradientUnits="userSpaceOnUse" spreadMethod="reflect" x1="-81.390289" y1="256.63135" x2="-81.390289" y2="282.01022"></linearGradient><linearGradient inkscape:collect="always" xlink:href="#linearGradient3336" id="linearGradient3537" gradientUnits="userSpaceOnUse" spreadMethod="reflect" x1="-81.390289" y1="256.63135" x2="-81.390289" y2="282.01022"></linearGradient><linearGradient inkscape:collect="always" xlink:href="#linearGradient3336" id="linearGradient3539" gradientUnits="userSpaceOnUse" spreadMethod="reflect" x1="-81.390289" y1="256.63135" x2="-81.390289" y2="282.01022"></linearGradient><linearGradient inkscape:collect="always" xlink:href="#linearGradient3423" id="linearGradient3541" gradientUnits="userSpaceOnUse" gradientTransform="translate(-319,4)" x1="161" y1="120.99234" x2="161" y2="182.60968"></linearGradient><linearGradient inkscape:collect="always" xlink:href="#linearGradient3423" id="linearGradient3543" gradientUnits="userSpaceOnUse" gradientTransform="matrix(0.9710774,0,0,-0.9710774,-313.84346,414.70558)" x1="161" y1="113.375" x2="161" y2="147.99234"></linearGradient><linearGradient inkscape:collect="always" xlink:href="#linearGradient3569" id="linearGradient3575" x1="-300" y1="222.36218" x2="-208" y2="222.36218" gradientUnits="userSpaceOnUse" gradientTransform="translate(364,0)"></linearGradient><linearGradient inkscape:collect="always" xlink:href="#linearGradient3569" id="linearGradient3579" gradientUnits="userSpaceOnUse" gradientTransform="translate(214,2)" x1="-300" y1="222.36218" x2="-208" y2="222.36218"></linearGradient></defs><metadata></metadata><g inkscape:label="Capa 1" inkscape:groupmode="layer" id="layer1" transform="translate(-45.927547,-53.240654)"></g><g inkscape:groupmode="layer" id="layer2" inkscape:label="nueva" style="filter:url(#filter2428)" transform="translate(-45.927547,-53.240654)"><path sodipodi:type="arc" style="fill:none;fill-opacity:1;stroke:url(#linearGradient3476);stroke-width:8.73565292;stroke-miterlimit:4;stroke-dasharray:none;stroke-opacity:1" id="path3352" sodipodi:cx="-81.390289" sodipodi:cy="282.01022" sodipodi:rx="25.702198" sodipodi:ry="24.988247" d="M -55.688091,282.01022 A 25.702198,24.988247 0 1 1 -107.09249,282.01022 A 25.702198,24.988247 0 1 1 -55.688091,282.01022 z" transform="matrix(-3.1514055,4.5011812,-4.5011812,-3.1514055,1221.4103,1472.2649)"></path><path transform="matrix(2.7484475,-3.9259259,3.9256325,2.7486529,-674.84658,-877.49657)" d="M -55.688091,282.01022 A 25.702198,24.988247 0 1 1 -107.09249,282.01022 A 25.702198,24.988247 0 1 1 -55.688091,282.01022 z" sodipodi:ry="24.988247" sodipodi:rx="25.702198" sodipodi:cy="282.01022" sodipodi:cx="-81.390289" id="path3478" style="fill:none;fill-opacity:1;stroke:url(#linearGradient3480);stroke-width:9.19523144;stroke-miterlimit:4;stroke-dasharray:none;stroke-opacity:1" sodipodi:type="arc"></path><g id="g3518" transform="matrix(1.2758619,0,0,1.2758619,407.31297,-198.87416)"><g transform="matrix(0.9991973,-4.0060117e-2,4.0060117e-2,0.9991973,-6.32172,109.60727)" id="g3447"><g id="g3392"><path sodipodi:type="arc" style="opacity:1;fill:#000030;fill-opacity:1;stroke:none;stroke-width:4.52243328;stroke-miterlimit:4;stroke-dasharray:none;stroke-opacity:1" id="path3300" sodipodi:cx="-81.390289" sodipodi:cy="282.01022" sodipodi:rx="25.702198" sodipodi:ry="24.988247" d="M -55.688091,282.01022 A 25.702198,24.988247 0 1 1 -107.09249,282.01022 A 25.702198,24.988247 0 1 1 -55.688091,282.01022 z" transform="matrix(3.9166047,0,0,3.9166047,160.38331,-894.51231)"></path><path transform="matrix(1.1335727,0,0,1.1335727,-66.12847,-109.66883)" d="M -55.688091,282.01022 A 25.702198,24.988247 0 1 1 -107.09249,282.01022 A 25.702198,24.988247 0 1 1 -55.688091,282.01022 z" sodipodi:ry="24.988247" sodipodi:rx="25.702198" sodipodi:cy="282.01022" sodipodi:cx="-81.390289" id="path3298" style="opacity:1;fill:#000030;fill-opacity:1;stroke:url(#radialGradient3531);stroke-width:31.25090027;stroke-miterlimit:4;stroke-dasharray:none;stroke-opacity:1" sodipodi:type="arc"></path><path sodipodi:type="arc" style="opacity:1;fill:#000030;fill-opacity:1;stroke:url(#radialGradient3533);stroke-width:31.25090027;stroke-miterlimit:4;stroke-dasharray:none;stroke-opacity:1" id="path3310" sodipodi:cx="-81.390289" sodipodi:cy="282.01022" sodipodi:rx="25.702198" sodipodi:ry="24.988247" d="M -55.688091,282.01022 A 25.702198,24.988247 0 1 1 -107.09249,282.01022 A 25.702198,24.988247 0 1 1 -55.688091,282.01022 z" transform="matrix(1.1335727,0,0,1.1335727,-66.12847,-109.66883)"></path><path transform="matrix(2.9772244,0,0,2.9772244,83.926876,-629.59746)" d="M -55.688091,282.01022 A 25.702198,24.988247 0 1 1 -107.09249,282.01022 A 25.702198,24.988247 0 1 1 -55.688091,282.01022 z" sodipodi:ry="24.988247" sodipodi:rx="25.702198" sodipodi:cy="282.01022" sodipodi:cx="-81.390289" id="path3312" style="opacity:1;fill:none;fill-opacity:1;stroke:url(#linearGradient3535);stroke-width:0.29746807;stroke-miterlimit:4;stroke-dasharray:none;stroke-opacity:1" sodipodi:type="arc"></path><path sodipodi:type="arc" style="opacity:1;fill:none;fill-opacity:1;stroke:url(#linearGradient3537);stroke-width:0.29746807;stroke-miterlimit:4;stroke-dasharray:none;stroke-opacity:1" id="path3344" sodipodi:cx="-81.390289" sodipodi:cy="282.01022" sodipodi:rx="25.702198" sodipodi:ry="24.988247" d="M -55.688091,282.01022 A 25.702198,24.988247 0 1 1 -107.09249,282.01022 A 25.702198,24.988247 0 1 1 -55.688091,282.01022 z" transform="matrix(2.6592539,0,0,2.6592539,58.047165,-539.92653)"></path><path transform="matrix(2.0233129,0,0,2.0233129,6.2877427,-360.58467)" d="M -55.688091,282.01022 A 25.702198,24.988247 0 1 1 -107.09249,282.01022 A 25.702198,24.988247 0 1 1 -55.688091,282.01022 z" sodipodi:ry="24.988247" sodipodi:rx="25.702198" sodipodi:cy="282.01022" sodipodi:cx="-81.390289" id="path3348" style="opacity:1;fill:none;fill-opacity:1;stroke:url(#linearGradient3539);stroke-width:0.29746807;stroke-miterlimit:4;stroke-dasharray:none;stroke-opacity:1" sodipodi:type="arc"></path></g><path style="opacity:1;fill:url(#linearGradient3541);fill-opacity:1;stroke:none;stroke-width:48;stroke-miterlimit:4;stroke-dasharray:none;stroke-opacity:1" d="M -158,117.375 C -202.60502,117.375 -239.42384,142.29734 -244.4375,174.375 C -244.4375,174.375 -224.70415,201.90303 -158,174.375 C -106.34007,153.05555 -71.5625,174.375 -71.5625,174.375 C -76.57616,142.29734 -113.39498,117.375 -158,117.375 z" id="path3408" sodipodi:nodetypes="ccscc"></path><path sodipodi:nodetypes="ccscc" id="path3431" d="M -157.5,304.60968 C -200.81493,304.60968 -236.56885,280.40816 -241.4375,249.25827 C -241.4375,249.25827 -222.27489,222.52642 -157.5,249.25827 C -107.33421,269.96111 -73.5625,249.25827 -73.5625,249.25827 C -78.431152,280.40816 -114.18507,304.60968 -157.5,304.60968 z" style="opacity:1;fill:url(#linearGradient3543);fill-opacity:1;stroke:none;stroke-width:48;stroke-miterlimit:4;stroke-dasharray:none;stroke-opacity:1"></path></g><path transform="matrix(0.5069381,0,0,0.5069381,39.45119,317.97653)" d="M -330.92598,-7.5908825 L -356.90102,-10.023074 L -362.61459,-35.478394 L -340.17074,-48.778455 L -320.5861,-31.543025 L -330.92598,-7.5908825 z" inkscape:randomized="0" inkscape:rounded="0" inkscape:flatsided="true" sodipodi:arg2="1.6641598" sodipodi:arg1="1.0358413" sodipodi:r2="11.09617" sodipodi:r1="22.192341" sodipodi:cy="-26.682766" sodipodi:cx="-342.23969" sodipodi:sides="5" id="path3482" style="opacity:0.4907749;fill:#ffffff;fill-opacity:1;stroke:none;stroke-width:48;stroke-miterlimit:4;stroke-dasharray:none;stroke-opacity:1" sodipodi:type="star"></path></g></g></svg>