<svg xmlns="http://www.w3.org/2000/svg" xmlns:xlink="http://www.w3.org/1999/xlink" id="Layer_1" x="0px" y="0px" viewBox="0 0 307.8 111.1" style="enable-background:new 0 0 307.8 111.1;" xml:space="preserve"><style type="text/css">	.st0{fill:#FF7C66;}	.st1{fill:#033D58;}</style><circle class="st0" cx="294.7" cy="16" r="6.7"></circle><path class="st1" d="M98.7,31.6C113.6,31.3,126,43,126.4,58c0.4,14.9-11.4,27.3-26.3,27.7c-0.5,0-0.9,0-1.4,0 C83.8,86.1,71.4,74.3,71,59.4S82.4,32,97.3,31.6C97.8,31.6,98.2,31.6,98.7,31.6z M98.7,75.6c9.1,0.2,16.7-7,16.9-16.2 c0-0.3,0-0.5,0-0.8c0-9.3-7.5-16.9-16.8-16.9c-9.3,0-16.9,7.5-16.9,16.8c0,0,0,0,0,0c-0.3,9.1,6.9,16.7,16,17 C98.1,75.6,98.4,75.6,98.7,75.6z"></path><path class="st1" d="M160.1,31.6c14.9,0.3,26.8,12.6,26.5,27.5C186.4,74.1,174,86,159.1,85.7c-14.7-0.3-26.5-12.3-26.5-27 c-0.1-14.8,11.7-26.9,26.5-27C159.5,31.6,159.8,31.6,160.1,31.6z M160.1,75.6c9.1,0.2,16.7-7,16.9-16.2c0-0.3,0-0.5,0-0.8 c0-9.3-7.5-16.9-16.8-16.9c-9.3,0-16.9,7.5-16.9,16.8c0,0,0,0,0,0c-0.3,9.1,6.9,16.7,16,17C159.6,75.6,159.9,75.6,160.1,75.6z"></path><path class="st1" d="M289.3,83.4V32.8c0-0.7,0.5-1.2,1.2-1.2l0,0h8.3c0.6,0,1.2,0.5,1.2,1.2c0,0,0,0,0,0v50.6c0,0.6-0.5,1.2-1.2,1.2 h-8.3C289.9,84.6,289.3,84.1,289.3,83.4z"></path><path class="st1" d="M258.1,31.6c-7.4-0.2-14.4,3.5-18.5,9.7c-3.3-6-9.6-9.7-18.5-9.7s-14.1,5-15.7,7.6v-8.2c0-0.6-0.5-1.2-1.1-1.2 c-0.2,0-0.5,0.1-0.7,0.2l-8.7,5c-0.2,0.1-0.3,0.3-0.3,0.5v47.8c0,0.7,0.5,1.2,1.2,1.2h8.4c0.7,0,1.2-0.5,1.2-1.2V55.4 c0-8.6,6.3-13.6,14-13.6s12.2,5,12.2,13.6v28.1c0,0.6,0.5,1.2,1.2,1.2h8.4c0.6,0,1.2-0.5,1.2-1.2V54.7c0.3-8.2,6.5-12.9,14.1-12.9 c7.6,0,12.2,5,12.2,13.6v28.1c0,0.6,0.5,1.2,1.2,1.2h8.4c0.6,0,1.2-0.5,1.2-1.2V53.1C279.4,40.5,271.9,31.6,258.1,31.6z"></path><path class="st1" d="M36.5,31.6c-7.1-0.1-13.9,2.5-19.1,7.3V3.1c0-0.7-0.5-1.2-1.2-1.2c-0.2,0-0.4,0.1-0.6,0.2L7,7.1 C6.8,7.2,6.7,7.4,6.7,7.6v75.8c0,0.6,0.5,1.2,1.2,1.2c0,0,0,0,0,0h8.4c0.6,0,1.2-0.5,1.2-1.2v0v-5c5.2,4.8,12.1,7.4,19.1,7.3 c14.9,0.4,27.3-11.4,27.7-26.3C64.6,44.4,52.8,32,37.9,31.6C37.4,31.6,37,31.6,36.5,31.6L36.5,31.6z M36.5,75.6 c-9.1,0.2-16.7-7-16.9-16.2c0-0.3,0-0.5,0-0.8c0-9.3,7.5-16.9,16.9-16.9s16.9,7.5,16.9,16.9c0.3,9.1-6.9,16.7-16,17 C37.1,75.6,36.8,75.6,36.5,75.6z"></path><path class="st1" d="M101.9,104.8v3.1h-1.6V97.7h4.6c1.8-0.2,3.4,1.1,3.6,2.9c0,0.2,0,0.4,0,0.6c0.1,1.9-1.4,3.4-3.3,3.5 c-0.1,0-0.2,0-0.3,0L101.9,104.8z M101.9,99.2v4.2h2.7c1.1,0.1,2.1-0.8,2.2-1.9c0-0.1,0-0.1,0-0.2c0.1-1.1-0.8-2.1-1.9-2.1 c-0.1,0-0.2,0-0.3,0H101.9z"></path><path class="st1" d="M113.3,100.5c2.1,0,3.7,1.7,3.7,3.8c0,2.1-1.7,3.7-3.8,3.7c-2,0-3.7-1.7-3.7-3.7c0-2,1.6-3.7,3.7-3.7 C113.2,100.5,113.2,100.5,113.3,100.5z M113.3,106.6c1.3,0,2.4-1,2.4-2.3c0-1.3-1-2.4-2.3-2.4c-1.3,0-2.4,1-2.4,2.3c0,0,0,0,0,0.1 C111,105.5,112,106.6,113.3,106.6C113.3,106.6,113.3,106.6,113.3,106.6L113.3,106.6z"></path><path class="st1" d="M126,106.4l1.6-5.7h1.6l-2.1,7.2h-2l-1.5-5.1l-1.5,5.1h-2.1l-2.1-7.2h1.6l1.6,5.7l1.7-5.6h1.6L126,106.4z"></path><path class="st1" d="M136.9,107.3c-0.8,0.5-1.8,0.7-2.7,0.7c-2,0.2-3.9-1.3-4-3.4c0-0.1,0-0.2,0-0.4c-0.1-2,1.5-3.7,3.4-3.7 c0,0,0.1,0,0.1,0c1.9-0.1,3.5,1.4,3.6,3.3c0,0.3,0,0.6-0.1,0.9h-5.6c0.3,1.2,1.4,1.9,2.5,1.8c0.9,0,1.7-0.2,2.5-0.7L136.9,107.3z  M135.8,103.7c0-1-0.8-1.8-1.8-1.8c-0.1,0-0.2,0-0.2,0c-1.1-0.1-2,0.7-2.2,1.8H135.8z"></path><path class="st1" d="M140.5,101.7c0.3-0.7,1-1.1,1.8-1.1c0.3,0,0.7,0.1,1,0.2l-0.2,1.4c-0.3-0.1-0.6-0.2-0.9-0.2 c-0.8,0-1.8,0.4-1.8,2v3.9H139v-7.2h1.5L140.5,101.7z"></path><path class="st1" d="M144.6,98.3c0-0.5,0.4-0.9,0.9-0.9c0.5,0,0.9,0.4,0.9,0.9c0,0.5-0.4,0.9-0.9,0.9 C145,99.2,144.6,98.9,144.6,98.3C144.6,98.4,144.6,98.3,144.6,98.3z M144.7,107.8v-7.2h1.5v7.2H144.7z"></path><path class="st1" d="M155.2,103.5v4.3h-1.4v-4c0.1-0.9-0.6-1.7-1.5-1.8c-0.1,0-0.2,0-0.3,0c-1-0.1-1.9,0.6-2,1.6c0,0.1,0,0.1,0,0.2 v4h-1.5v-7.2h1.5v0.9c0.5-0.7,1.3-1.1,2.2-1.1c1.5-0.1,2.8,1,2.9,2.5C155.2,103.2,155.2,103.4,155.2,103.5z"></path><path class="st1" d="M156.9,104.2c-0.1-2,1.5-3.6,3.5-3.7c0,0,0.1,0,0.1,0c1-0.1,1.9,0.4,2.5,1.1v-1h1.5v6.7c0,2-1.6,3.6-3.6,3.6 c-0.1,0-0.3,0-0.4,0c-1,0-2-0.2-2.9-0.6l0.2-1.3c0.8,0.4,1.7,0.6,2.6,0.6c1.6,0,2.6-0.8,2.6-2.2v-0.6c-0.6,0.8-1.6,1.2-2.5,1.1 c-2,0-3.6-1.6-3.6-3.5C156.9,104.4,156.9,104.3,156.9,104.2z M160.7,101.9c-1.2,0-2.3,1-2.3,2.2c0,0,0,0.1,0,0.1 c-0.1,1.3,0.9,2.4,2.2,2.4c0,0,0.1,0,0.1,0c1.3,0,2.4-1.1,2.4-2.4c0,0,0,0,0-0.1c0-1.3-1-2.3-2.3-2.4 C160.8,101.9,160.7,101.9,160.7,101.9z"></path><path class="st1" d="M172.5,101.9v3.6c-0.1,0.6,0.4,1.1,0.9,1.1c0.1,0,0.2,0,0.2,0c0.4,0,0.8-0.1,1.2-0.2l0.2,1.3 c-0.5,0.2-1,0.2-1.6,0.2c-1.2,0.1-2.3-0.7-2.4-1.9c0-0.1,0-0.3,0-0.4v-3.8h-1.3v-1.2h1.3v-2.3h1.4v2.3h2.1v1.2H172.5z"></path><path class="st1" d="M183.1,103.5v4.3h-1.5v-4c0.1-0.9-0.6-1.7-1.5-1.8c-0.1,0-0.2,0-0.3,0c-1-0.1-1.9,0.6-2,1.6c0,0.1,0,0.1,0,0.2 v4h-1.5V97.4h1.5v4.2c0.5-0.7,1.3-1.1,2.2-1.1c1.5-0.2,2.9,0.9,3,2.4C183.1,103.1,183.1,103.3,183.1,103.5z"></path><path class="st1" d="M191.6,107.3c-0.8,0.5-1.8,0.7-2.7,0.7c-2,0.2-3.9-1.3-4-3.4c0-0.1,0-0.2,0-0.4c-0.1-2,1.5-3.7,3.4-3.7 c0.1,0,0.2,0,0.2,0c1.9,0,3.5,1.5,3.5,3.4c0,0.3,0,0.6-0.1,0.8h-5.6c0.3,1.2,1.4,1.9,2.5,1.8c0.9,0,1.7-0.2,2.5-0.7L191.6,107.3z  M190.6,103.7c0-1-0.8-1.8-1.8-1.8c-0.1,0-0.2,0-0.2,0c-1.1-0.1-2,0.7-2.2,1.8H190.6z"></path><path class="st1" d="M202,97.7c2.8,0,5.1,2.3,5.1,5.1c0,2.8-2.3,5.1-5.1,5.1h-4.3V97.7H202z M205.4,102.8c0.2-1.8-1.1-3.4-2.8-3.6 c-0.3,0-0.5,0-0.8,0h-2.5v7.3h2.5c1.7,0.2,3.4-1,3.6-2.7C205.5,103.5,205.5,103.1,205.4,102.8z"></path><path class="st1" d="M208.5,104.2c-0.1-2,1.5-3.6,3.5-3.7c0,0,0.1,0,0.1,0c1-0.1,1.9,0.4,2.5,1.1v-1h1.5v7.2h-1.5v-1 c-0.6,0.8-1.6,1.2-2.5,1.1c-2,0-3.6-1.6-3.6-3.6C208.4,104.4,208.5,104.3,208.5,104.2z M212.2,101.9c-1.2,0-2.3,1-2.3,2.2 c0,0,0,0.1,0,0.1c-0.1,1.3,0.9,2.4,2.2,2.4c0,0,0.1,0,0.1,0c1.3,0,2.4-1.1,2.4-2.4c0,0,0,0,0-0.1c0-1.3-1-2.3-2.3-2.4 C212.3,101.9,212.3,101.9,212.2,101.9z"></path><path class="st1" d="M220.3,101.9v3.6c-0.1,0.6,0.4,1.1,0.9,1.1c0.1,0,0.2,0,0.2,0c0.4,0,0.8-0.1,1.2-0.2l0.2,1.3 c-0.5,0.2-1,0.2-1.6,0.2c-1.2,0.1-2.3-0.7-2.4-1.9c0-0.1,0-0.3,0-0.4v-3.8h-1.3v-1.2h1.3v-2.3h1.4v2.3h2.1v1.2H220.3z"></path><path class="st1" d="M223.7,104.2c-0.1-2,1.5-3.6,3.5-3.7c0,0,0.1,0,0.1,0c1-0.1,1.9,0.4,2.5,1.1v-1h1.5v7.2h-1.5v-1 c-0.6,0.8-1.6,1.2-2.5,1.1c-2,0-3.6-1.6-3.6-3.6C223.7,104.4,223.7,104.3,223.7,104.2z M227.5,101.9c-1.2,0-2.3,1-2.3,2.2 c0,0,0,0.1,0,0.1c-0.1,1.3,0.9,2.4,2.2,2.4c0,0,0,0,0,0c1.3,0,2.4-1.1,2.4-2.4c0,0,0,0,0-0.1C229.8,103,228.8,101.9,227.5,101.9 C227.5,101.9,227.4,101.9,227.5,101.9L227.5,101.9z"></path><path class="st1" d="M245,107.8h-7.5V97.7h7.3v1.4h-5.8v2.8h5v1.4h-5v3.1h5.9V107.8z"></path><path class="st1" d="M250.3,100.5c0.7,0,1.5,0.2,2.1,0.5l-0.2,1.3c-0.6-0.3-1.3-0.4-2-0.4c-1.3-0.1-2.4,0.8-2.6,2.1 c0,0.1,0,0.1,0,0.2c0,1.3,1.1,2.4,2.4,2.3c0,0,0.1,0,0.1,0c0.7,0,1.4-0.2,2-0.4l0.2,1.3c-0.7,0.3-1.5,0.5-2.2,0.5 c-2.1,0.1-3.8-1.4-4-3.5c-0.1-2.1,1.4-3.8,3.5-4C249.9,100.5,250.1,100.5,250.3,100.5L250.3,100.5z"></path><path class="st1" d="M257.4,100.5c2.1,0,3.7,1.7,3.7,3.8c0,2.1-1.7,3.7-3.8,3.7c-2,0-3.7-1.7-3.7-3.7c0-2,1.6-3.7,3.7-3.7 C257.3,100.5,257.3,100.5,257.4,100.5z M257.4,106.6c1.3,0,2.4-1,2.4-2.3c0-1.3-1-2.4-2.3-2.4c-1.3,0-2.4,1-2.4,2.3c0,0,0,0,0,0.1 C255.1,105.5,256.1,106.6,257.4,106.6C257.4,106.6,257.4,106.6,257.4,106.6L257.4,106.6z"></path><path class="st1" d="M269.7,103.5v4.3h-1.5v-4c0.1-0.9-0.6-1.7-1.5-1.8c-0.1,0-0.2,0-0.3,0c-1-0.1-1.9,0.6-2,1.6c0,0.1,0,0.1,0,0.2 v4h-1.5v-7.2h1.5v0.9c0.5-0.7,1.3-1.1,2.2-1.1c1.5-0.2,2.9,0.9,3,2.4C269.7,103.1,269.7,103.3,269.7,103.5z"></path><path class="st1" d="M275.2,100.5c2.1,0,3.7,1.7,3.7,3.8c0,2.1-1.7,3.7-3.8,3.7c-2,0-3.7-1.7-3.7-3.7c0-2,1.6-3.7,3.7-3.7 C275.1,100.5,275.1,100.5,275.2,100.5z M275.2,106.6c1.3,0,2.4-1,2.4-2.3c0-1.3-1-2.4-2.3-2.4c-1.3,0-2.4,1-2.4,2.3c0,0,0,0,0,0.1 C272.9,105.5,273.9,106.6,275.2,106.6C275.2,106.6,275.2,106.6,275.2,106.6L275.2,106.6z"></path><path class="st1" d="M287,101.9c0.6-0.9,1.5-1.4,2.5-1.3c1.5-0.1,2.8,1,2.9,2.5c0,0.2,0,0.3,0,0.5v4.3H291v-4c0-1.2-0.6-1.8-1.7-1.8 c-1-0.1-1.8,0.7-1.9,1.7c0,0,0,0.1,0,0.1v4.1h-1.5v-4.1c0-1.2-0.6-1.8-1.7-1.8c-1-0.1-1.9,0.7-1.9,1.6c0,0,0,0.1,0,0.1v4h-1.5v-7.2 h1.5v0.9c0.5-0.7,1.3-1.1,2.2-1.1C285.5,100.4,286.5,101,287,101.9z"></path><path class="st1" d="M299.7,100.7h1.6l-3.4,8.1c-0.6,1.3-1.2,2.2-2.9,2.2c-0.4,0-0.8-0.1-1.2-0.3l0.2-1.2c0.3,0.1,0.6,0.2,1,0.2 c1,0,1.3-0.5,1.7-1.3l0.1-0.4l-3.1-7.2h1.6l2.2,5.5L299.7,100.7z"></path></svg>