<svg xmlns="http://www.w3.org/2000/svg" xmlns:xlink="http://www.w3.org/1999/xlink" fill="none" viewBox="0 0 1522 1522"><style>.e{fill:#fff}.a{stroke:#fff}.b{stop-color:#fff}.c{stop-color:#1a237e}.d{stop-opacity:0}.f{stop-opacity:.12}</style><rect id="d" width="1520" height="1520" rx="120"></rect><radialGradient id="f" cx="15%" cy="14%" r="100%"><stop class="b f" offset="0"></stop><stop class="b d" offset="1"></stop></radialGradient><radialGradient id="g" cx="-.2%" cy=".1%" r="136%"><stop class="c" offset="0" stop-opacity=".2"></stop><stop class="c d" offset="1"></stop></radialGradient><radialGradient id="h" cx="85%" cy="13%" r="154%"><stop class="c f" offset="0"></stop><stop class="c d" offset="1"></stop></radialGradient><radialGradient id="i" cx="41%" cy="0" r="57%"><stop class="c" offset="0" stop-opacity=".15"></stop><stop class="c d" offset="1"></stop></radialGradient><path id="a" d="M761 1361a600 600 0 100-1200 600 600 0 000 1200z"></path><mask id="j" width="120" height="120" x="0" y="0" class="e"><use xlink:href="#a"></use></mask><circle id="b" cx="761" cy="761" r="280"></circle><mask id="k" width="56" height="56" x="0" y="0" class="e"><use xlink:href="#b"></use></mask><circle id="c" cx="761" cy="761" r="200"></circle><mask id="l" width="40" height="40" x="0" y="0" class="e"><use xlink:href="#c"></use></mask><use fill="#2879ff" xlink:href="#d"></use><g stroke-opacity=".2" stroke-width="5" class="a" xlink:href="#d"><path d="M-199-199l1920 1920m0-1920L-199 1721M1038.5-199v1920m-555-1920v1920M1721 1038.5H-199m1920-555H-199"></path><circle cx="761" cy="761" r="390"></circle><path d="M-199 761h1920M761-199v1920"></path></g><circle cx="761" cy="761" r="600" fill="url(#f)"></circle><path d="M1400 0H120C54 0 0 54 0 120v10C0 64 54 10 120 10h1280c66 0 120 54 120 120v-10c0-66-54-120-120-120z" class="e" opacity=".2"></path><path fill="#000" d="M1401 1511H121c-66 0-120-54-120-120v10c0 66 54 120 120 120h1280c66 0 120-54 120-120v-10c0 66-54 120-120 120z" opacity=".1"></path><path fill="url(#g)" d="M495.9 675.8L251 431l267.2 458.3a273.7 273.7 0 01-22.4-213.5z"></path><path fill="url(#h)" d="M820.7 1031L731 1365.6 996.6 901a274.2 274.2 0 01-176 130z"></path><path fill="url(#i)" d="M962 575.3l334.2-89.3H759.7A273.7 273.7 0 10962 575.3z"></path><g stroke-width="40" class="a"><use mask="url(#j)" xlink:href="#a"></use><use mask="url(#k)" xlink:href="#b"></use><use mask="url(#l)" xlink:href="#c"></use></g><path d="M761 481h530v20H761zm242.5 420l-265 459-17.3-10 265-459zm-485 0l-265-459 17.3-10 265 459z" class="e"></path></svg>