<svg xmlns:inkscape="http://www.inkscape.org/namespaces/inkscape" xmlns:sodipodi="http://sodipodi.sourceforge.net/DTD/sodipodi-0.dtd" xmlns="http://www.w3.org/2000/svg" xmlns:svg="http://www.w3.org/2000/svg" id="svg2" width="400" height="400" viewBox="0 0 400 400" sodipodi:docname="city-bank-1.ai"><defs id="defs6"><clipPath clipPathUnits="userSpaceOnUse" id="clipPath16"><path d="M 0,300 H 300 V 0 H 0 Z" id="path14"></path></clipPath><linearGradient x1="0" y1="0" x2="1" y2="0" gradientUnits="userSpaceOnUse" gradientTransform="matrix(110.15872,0,0,110.15872,82.805267,177.08539)" spreadMethod="pad" id="linearGradient154"><stop style="stop-opacity:1;stop-color:#ffffff" offset="0" id="stop148"></stop><stop style="stop-opacity:1;stop-color:#808285" offset="0.92321612" id="stop150"></stop><stop style="stop-opacity:1;stop-color:#808285" offset="1" id="stop152"></stop></linearGradient></defs><g id="g8" inkscape:groupmode="layer" inkscape:label="city-bank-1" transform="matrix(1.3333333,0,0,-1.3333333,0,400)"><g id="g10"><g id="g12" clip-path="url(#clipPath16)"><g id="g18" transform="translate(66.5542,67.9873)"><path d="M 0,0 V 11.035 H 1.611 V 9.471 c 0.347,0.544 0.797,0.975 1.37,1.306 0.572,0.334 1.211,0.492 1.938,0.492 0.816,0 1.472,-0.171 1.993,-0.505 0.502,-0.343 0.868,-0.821 1.094,-1.424 0.864,1.284 1.99,1.929 3.374,1.929 1.077,0 1.909,-0.299 2.498,-0.908 0.571,-0.605 0.866,-1.54 0.866,-2.792 V 0 h -1.821 v 6.939 c 0,0.745 -0.069,1.277 -0.19,1.616 C 12.628,8.876 12.402,9.14 12.075,9.35 11.764,9.546 11.401,9.648 10.967,9.648 10.188,9.648 9.562,9.389 9.043,8.876 8.541,8.357 8.28,7.537 8.28,6.399 V 0 H 6.461 v 7.158 c 0,0.825 -0.15,1.455 -0.468,1.864 C 5.698,9.438 5.216,9.648 4.521,9.648 4.003,9.648 3.516,9.505 3.066,9.232 2.634,8.961 2.321,8.55 2.116,8.016 1.921,7.487 1.819,6.715 1.819,5.717 V 0 Z" style="fill:#231f20;fill-opacity:1;fill-rule:nonzero;stroke:none" id="path20"></path></g><g id="g22" transform="translate(91.001,73.5391)"><path d="m 0,0 c -0.676,-0.272 -1.698,-0.515 -3.068,-0.706 -0.764,-0.11 -1.298,-0.235 -1.632,-0.375 -0.306,-0.142 -0.553,-0.338 -0.726,-0.61 -0.174,-0.267 -0.277,-0.562 -0.277,-0.893 0,-0.501 0.192,-0.924 0.576,-1.255 0.377,-0.329 0.934,-0.493 1.661,-0.493 0.724,0 1.35,0.15 1.922,0.473 0.555,0.315 0.968,0.745 1.231,1.293 0.206,0.431 0.294,1.048 0.294,1.878 z m 0.101,-4.168 c -0.659,-0.594 -1.312,-1.015 -1.959,-1.259 -0.621,-0.24 -1.313,-0.361 -2.042,-0.361 -1.213,0 -2.13,0.295 -2.787,0.885 -0.643,0.582 -0.974,1.349 -0.974,2.27 0,0.535 0.14,1.031 0.386,1.477 0.222,0.45 0.548,0.803 0.948,1.076 0.4,0.267 0.852,0.473 1.337,0.605 0.379,0.094 0.937,0.192 1.661,0.286 1.492,0.175 2.6,0.393 3.31,0.644 C 0,1.704 0,1.873 0,1.937 0,2.695 -0.176,3.226 -0.523,3.529 -1.005,3.95 -1.716,4.162 -2.653,4.162 -3.519,4.162 -4.179,4.012 -4.593,3.703 -5.006,3.408 -5.319,2.865 -5.511,2.097 l -1.837,0.24 c 0.156,0.772 0.434,1.407 0.816,1.894 0.381,0.473 0.918,0.843 1.626,1.101 0.713,0.254 1.54,0.384 2.477,0.384 0.919,0 1.7,-0.103 2.274,-0.326 0.571,-0.217 1,-0.498 1.279,-0.839 C 1.4,4.222 1.592,3.797 1.695,3.285 1.764,2.963 1.8,2.392 1.8,1.567 v -2.495 c 0,-1.741 0.034,-2.838 0.105,-3.3 0.085,-0.463 0.241,-0.899 0.467,-1.325 H 0.468 c -0.194,0.394 -0.313,0.858 -0.367,1.385" style="fill:#231f20;fill-opacity:1;fill-rule:nonzero;stroke:none" id="path24"></path></g><g id="g26" transform="translate(95.6421,67.9873)"><path d="M 0,0 V 15.235 H 1.839 V 6.564 l 4.396,4.471 h 2.39 L 4.435,6.925 9.027,0 H 6.758 L 3.134,5.646 1.839,4.364 V 0 Z" style="fill:#231f20;fill-opacity:1;fill-rule:nonzero;stroke:none" id="path28"></path></g><path d="m 106.108,79.023 h 1.834 V 67.988 h -1.834 z m 0,4.2 h 1.834 v -2.134 h -1.834 z" style="fill:#231f20;fill-opacity:1;fill-rule:nonzero;stroke:none" id="path30"></path><g id="g32" transform="translate(110.7676,67.9873)"><path d="M 0,0 V 11.035 H 1.663 V 9.471 c 0.777,1.194 1.938,1.798 3.43,1.798 0.656,0 1.247,-0.117 1.803,-0.354 C 7.43,10.675 7.844,10.357 8.125,9.974 8.401,9.585 8.591,9.126 8.696,8.586 8.764,8.246 8.783,7.645 8.783,6.774 V 0 H 6.961 V 6.699 C 6.961,7.462 6.896,8.033 6.756,8.403 6.617,8.783 6.34,9.082 5.995,9.309 5.611,9.532 5.195,9.648 4.695,9.648 3.934,9.648 3.24,9.397 2.666,8.881 2.097,8.386 1.818,7.431 1.818,6.016 V 0 Z" style="fill:#231f20;fill-opacity:1;fill-rule:nonzero;stroke:none" id="path34"></path></g><g id="g36" transform="translate(123.5869,73.6904)"><path d="m 0,0 c 0,-1.437 0.274,-2.49 0.848,-3.15 0.571,-0.661 1.281,-0.999 2.148,-0.999 0.863,0 1.576,0.338 2.165,0.989 0.571,0.66 0.869,1.695 0.869,3.103 0,1.346 -0.298,2.36 -0.901,3.043 C 4.538,3.667 3.83,4.012 2.979,4.012 2.148,4.012 1.435,3.672 0.866,3 0.274,2.333 0,1.33 0,0 m -1.526,-6.617 1.787,-0.237 c 0.086,-0.572 0.294,-0.978 0.637,-1.241 0.455,-0.347 1.076,-0.518 1.871,-0.518 0.871,0 1.547,0.171 1.995,0.513 0.486,0.348 0.795,0.834 0.953,1.447 0.086,0.383 0.139,1.185 0.139,2.406 -0.815,-0.974 -1.819,-1.456 -3.034,-1.456 -1.506,0 -2.669,0.549 -3.482,1.642 -0.827,1.088 -1.227,2.396 -1.227,3.921 0,1.063 0.171,2.028 0.551,2.925 0.383,0.882 0.92,1.569 1.647,2.052 0.71,0.486 1.558,0.728 2.529,0.728 1.284,0 2.337,-0.527 3.19,-1.589 v 1.357 h 1.663 v -9.542 c 0,-1.713 -0.176,-2.922 -0.535,-3.633 -0.349,-0.735 -0.886,-1.293 -1.631,-1.709 -0.745,-0.413 -1.668,-0.623 -2.772,-0.623 -1.281,0 -2.341,0.299 -3.121,0.891 -0.795,0.585 -1.195,1.473 -1.16,2.666" style="fill:#231f20;fill-opacity:1;fill-rule:nonzero;stroke:none" id="path38"></path></g><g id="g40" transform="translate(139.1255,71.3389)"><path d="m 0,0 1.821,0.24 c 0.103,-0.745 0.397,-1.321 0.864,-1.709 0.45,-0.4 1.11,-0.596 1.958,-0.596 0.831,0 1.473,0.173 1.887,0.53 0.402,0.345 0.608,0.758 0.608,1.231 0,0.425 -0.174,0.749 -0.537,0.991 C 6.358,0.856 5.719,1.071 4.713,1.33 3.361,1.668 2.429,1.972 1.908,2.228 1.369,2.477 0.971,2.819 0.713,3.276 0.432,3.722 0.292,4.213 0.292,4.752 c 0,0.482 0.122,0.946 0.35,1.366 0.21,0.405 0.519,0.759 0.898,1.04 0.294,0.215 0.678,0.389 1.165,0.544 0.503,0.149 1.037,0.215 1.611,0.215 0.848,0 1.592,-0.117 2.248,-0.37 C 7.208,7.295 7.674,6.962 7.985,6.541 8.298,6.118 8.522,5.547 8.632,4.837 L 6.825,4.606 C 6.74,5.163 6.516,5.609 6.116,5.917 5.719,6.235 5.18,6.391 4.469,6.391 3.605,6.391 2.998,6.251 2.632,5.97 2.271,5.68 2.095,5.351 2.095,4.972 2.095,4.716 2.166,4.503 2.321,4.312 2.479,4.11 2.705,3.945 3.029,3.811 3.208,3.745 3.761,3.573 4.661,3.329 5.961,2.981 6.877,2.687 7.38,2.463 7.898,2.236 8.298,1.91 8.593,1.494 8.89,1.053 9.027,0.53 9.027,-0.112 9.027,-0.731 8.854,-1.316 8.49,-1.864 8.143,-2.415 7.622,-2.843 6.948,-3.137 6.271,-3.441 5.511,-3.587 4.643,-3.587 3.237,-3.587 2.147,-3.286 1.421,-2.683 0.676,-2.079 0.206,-1.19 0,0" style="fill:#231f20;fill-opacity:1;fill-rule:nonzero;stroke:none" id="path42"></path></g><g id="g44" transform="translate(151.7207,74.5518)"><path d="M 0,0 H 6.063 C 5.995,0.932 5.753,1.634 5.371,2.093 4.782,2.824 4.017,3.178 3.082,3.178 2.236,3.178 1.54,2.901 0.953,2.316 0.382,1.741 0.053,0.974 0,0 M 6.046,-3.012 7.933,-3.254 C 7.636,-4.373 7.066,-5.253 6.271,-5.872 c -0.815,-0.617 -1.855,-0.93 -3.1,-0.93 -1.597,0 -2.842,0.496 -3.778,1.488 -0.919,0.994 -1.401,2.382 -1.401,4.167 0,1.862 0.482,3.297 1.421,4.316 0.935,1.026 2.148,1.535 3.653,1.535 1.437,0 2.632,-0.5 3.551,-1.496 0.918,-1.008 1.37,-2.413 1.37,-4.225 v -0.504 h -8.092 c 0.068,-1.218 0.416,-2.144 1.002,-2.795 0.626,-0.637 1.372,-0.964 2.274,-0.964 0.692,0 1.262,0.18 1.729,0.542 0.488,0.356 0.853,0.931 1.146,1.726" style="fill:#231f20;fill-opacity:1;fill-rule:nonzero;stroke:none" id="path46"></path></g><g id="g48" transform="translate(161.9775,67.9873)"><path d="M 0,0 V 11.035 H 1.661 V 9.471 c 0.795,1.194 1.94,1.798 3.448,1.798 0.658,0 1.252,-0.117 1.785,-0.354 C 7.446,10.675 7.862,10.357 8.141,9.974 8.399,9.585 8.591,9.126 8.696,8.586 8.765,8.246 8.797,7.645 8.797,6.774 V 0 H 6.978 V 6.699 C 6.978,7.462 6.894,8.033 6.759,8.403 6.617,8.783 6.361,9.082 5.993,9.309 5.628,9.532 5.195,9.648 4.711,9.648 3.93,9.648 3.254,9.397 2.685,8.881 2.109,8.386 1.837,7.431 1.837,6.016 V 0 Z" style="fill:#231f20;fill-opacity:1;fill-rule:nonzero;stroke:none" id="path50"></path></g><g id="g52" transform="translate(172.8721,71.3389)"><path d="m 0,0 1.818,0.24 c 0.121,-0.745 0.398,-1.321 0.867,-1.709 0.472,-0.4 1.128,-0.596 1.955,-0.596 0.868,0 1.492,0.173 1.891,0.53 0.414,0.345 0.624,0.758 0.624,1.231 0,0.425 -0.191,0.749 -0.539,0.991 C 6.358,0.856 5.734,1.071 4.729,1.33 3.379,1.668 2.444,1.972 1.907,2.228 1.387,2.477 0.984,2.819 0.712,3.276 0.452,3.722 0.311,4.213 0.311,4.752 c 0,0.482 0.107,0.946 0.333,1.366 0.219,0.405 0.537,0.759 0.898,1.04 0.295,0.215 0.694,0.389 1.179,0.544 0.5,0.149 1.023,0.215 1.592,0.215 0.866,0 1.611,-0.117 2.274,-0.37 C 7.224,7.295 7.692,6.962 8.003,6.541 8.316,6.118 8.524,5.547 8.646,4.837 L 6.845,4.606 C 6.758,5.163 6.518,5.609 6.132,5.917 5.734,6.235 5.179,6.391 4.471,6.391 3.623,6.391 3.013,6.251 2.652,5.97 2.284,5.68 2.115,5.351 2.115,4.972 2.115,4.716 2.184,4.503 2.325,4.312 2.48,4.11 2.721,3.945 3.031,3.811 3.221,3.745 3.776,3.573 4.66,3.329 5.975,2.981 6.879,2.687 7.4,2.463 7.919,2.236 8.316,1.91 8.613,1.494 8.903,1.053 9.043,0.53 9.043,-0.112 9.043,-0.731 8.854,-1.316 8.506,-1.864 8.145,-2.415 7.643,-2.843 6.945,-3.137 6.29,-3.441 5.508,-3.587 4.66,-3.587 3.239,-3.587 2.166,-3.286 1.421,-2.683 0.694,-2.079 0.207,-1.19 0,0" style="fill:#231f20;fill-opacity:1;fill-rule:nonzero;stroke:none" id="path54"></path></g><g id="g56" transform="translate(185.4834,74.5518)"><path d="M 0,0 H 6.05 C 5.979,0.932 5.753,1.634 5.354,2.093 4.767,2.824 4.021,3.178 3.082,3.178 2.237,3.178 1.526,2.901 0.953,2.316 0.38,1.741 0.055,0.974 0,0 M 6.032,-3.012 7.919,-3.254 C 7.622,-4.373 7.071,-5.253 6.251,-5.872 c -0.792,-0.617 -1.83,-0.93 -3.1,-0.93 -1.575,0 -2.838,0.496 -3.758,1.488 -0.933,0.994 -1.401,2.382 -1.401,4.167 0,1.862 0.468,3.297 1.421,4.316 0.935,1.026 2.146,1.535 3.635,1.535 1.456,0 2.637,-0.5 3.551,-1.496 C 7.538,2.2 7.99,0.795 7.99,-1.017 c 0,-0.121 0,-0.286 -0.02,-0.504 h -8.073 c 0.069,-1.218 0.4,-2.144 1.005,-2.795 0.606,-0.637 1.369,-0.964 2.267,-0.964 0.679,0 1.252,0.18 1.732,0.542 0.473,0.356 0.852,0.931 1.131,1.726" style="fill:#231f20;fill-opacity:1;fill-rule:nonzero;stroke:none" id="path58"></path></g><g id="g60" transform="translate(202.7754,73.498)"><path d="m 0,0 c 0,-1.419 0.309,-2.463 0.9,-3.173 0.609,-0.695 1.367,-1.054 2.29,-1.054 0.896,0 1.661,0.359 2.264,1.058 0.608,0.706 0.905,1.789 0.905,3.218 0,1.366 -0.297,2.4 -0.905,3.097 C 4.851,3.853 4.086,4.204 3.19,4.204 2.267,4.204 1.509,3.853 0.9,3.151 0.309,2.454 0,1.405 0,0 m -1.892,0.01 c 0,2.035 0.558,3.548 1.663,4.533 0.938,0.813 2.064,1.215 3.419,1.215 1.488,0 2.701,-0.491 3.649,-1.487 C 7.778,3.281 8.26,1.915 8.26,0.16 8.26,-1.254 8.055,-2.364 7.639,-3.187 7.204,-3.993 6.599,-4.622 5.802,-5.079 5.007,-5.533 4.138,-5.748 3.19,-5.748 c -1.531,0 -2.742,0.491 -3.676,1.482 -0.952,0.99 -1.406,2.409 -1.406,4.276" style="fill:#231f20;fill-opacity:1;fill-rule:nonzero;stroke:none" id="path62"></path></g><g id="g64" transform="translate(213.6367,67.9873)"><path d="m 0,0 v 9.585 h -1.627 v 1.45 H 0 v 1.166 c 0,0.74 0.05,1.288 0.189,1.643 0.176,0.482 0.487,0.873 0.935,1.177 0.452,0.298 1.073,0.45 1.871,0.45 0.524,0 1.092,-0.072 1.734,-0.2 L 4.432,13.647 C 4.053,13.713 3.705,13.741 3.36,13.741 2.806,13.741 2.405,13.624 2.166,13.378 1.939,13.143 1.818,12.696 1.818,12.041 V 11.035 H 3.947 V 9.585 H 1.818 V 0 Z" style="fill:#231f20;fill-opacity:1;fill-rule:nonzero;stroke:none" id="path66"></path></g><g id="g68" transform="translate(224.8281,67.9873)"><path d="M 0,0 V 11.035 H 1.627 V 9.471 c 0.35,0.544 0.779,0.975 1.355,1.306 0.569,0.334 1.229,0.492 1.937,0.492 0.834,0 1.472,-0.171 1.995,-0.505 0.517,-0.343 0.884,-0.821 1.106,-1.424 0.852,1.284 1.976,1.929 3.361,1.929 1.09,0 1.924,-0.299 2.514,-0.908 0.586,-0.605 0.863,-1.54 0.863,-2.792 V 0 h -1.832 v 6.939 c 0,0.745 -0.056,1.277 -0.177,1.616 C 12.628,8.876 12.423,9.14 12.094,9.35 11.778,9.546 11.417,9.648 10.98,9.648 10.223,9.648 9.563,9.389 9.062,8.876 8.557,8.357 8.299,7.537 8.299,6.399 V 0 H 6.462 v 7.158 c 0,0.825 -0.155,1.455 -0.45,1.864 C 5.715,9.438 5.217,9.648 4.54,9.648 4.001,9.648 3.535,9.505 3.082,9.232 2.65,8.961 2.324,8.55 2.134,8.016 1.924,7.487 1.837,6.715 1.837,5.717 V 0 Z" style="fill:#231f20;fill-opacity:1;fill-rule:nonzero;stroke:none" id="path70"></path></g><g id="g72" transform="translate(243.502,73.498)"><path d="m 0,0 c 0,-1.419 0.297,-2.463 0.904,-3.173 0.606,-0.695 1.368,-1.054 2.285,-1.054 0.903,0 1.65,0.359 2.252,1.058 0.609,0.706 0.919,1.789 0.919,3.218 0,1.366 -0.31,2.4 -0.919,3.097 C 4.839,3.853 4.071,4.204 3.189,4.204 2.272,4.204 1.51,3.853 0.904,3.151 0.297,2.454 0,1.405 0,0 m -1.903,0.01 c 0,2.035 0.552,3.548 1.681,4.533 0.934,0.813 2.059,1.215 3.411,1.215 1.49,0 2.703,-0.491 3.637,-1.487 C 7.781,3.281 8.248,1.915 8.248,0.16 8.248,-1.254 8.04,-2.364 7.622,-3.187 7.21,-3.993 6.601,-4.622 5.803,-5.079 5.008,-5.533 4.126,-5.748 3.189,-5.748 c -1.524,0 -2.753,0.491 -3.688,1.482 -0.934,0.99 -1.404,2.409 -1.404,4.276" style="fill:#231f20;fill-opacity:1;fill-rule:nonzero;stroke:none" id="path74"></path></g><g id="g76" transform="translate(253.915,67.9873)"><path d="M 0,0 V 11.035 H 1.663 V 9.471 c 0.8,1.194 1.941,1.798 3.447,1.798 0.643,0 1.25,-0.117 1.801,-0.354 C 7.45,10.675 7.861,10.357 8.129,9.974 8.4,9.585 8.595,9.126 8.714,8.586 8.767,8.246 8.805,7.645 8.805,6.774 V 0 H 6.984 V 6.699 C 6.984,7.462 6.911,8.033 6.758,8.403 6.618,8.783 6.36,9.082 5.995,9.309 5.632,9.532 5.216,9.648 4.713,9.648 3.934,9.648 3.258,9.397 2.685,8.881 2.117,8.386 1.836,7.431 1.836,6.016 V 0 Z" style="fill:#231f20;fill-opacity:1;fill-rule:nonzero;stroke:none" id="path78"></path></g><g id="g80" transform="translate(266.9443,74.5518)"><path d="M 0,0 H 6.079 C 5.975,0.932 5.753,1.634 5.367,2.093 4.779,2.824 4.037,3.178 3.101,3.178 2.248,3.178 1.54,2.901 0.973,2.316 0.382,1.741 0.068,0.974 0,0 M 6.045,-3.012 7.933,-3.254 C 7.641,-4.373 7.085,-5.253 6.29,-5.872 5.456,-6.489 4.433,-6.802 3.171,-6.802 c -1.581,0 -2.826,0.496 -3.758,1.488 -0.937,0.994 -1.408,2.382 -1.408,4.167 0,1.862 0.487,3.297 1.408,4.316 0.947,1.026 2.161,1.535 3.669,1.535 1.439,0 2.616,-0.5 3.534,-1.496 C 7.535,2.2 8.001,0.795 8.001,-1.017 v -0.504 h -8.088 c 0.066,-1.218 0.398,-2.144 1.003,-2.795 0.605,-0.637 1.371,-0.964 2.273,-0.964 0.674,0 1.244,0.18 1.73,0.542 0.469,0.356 0.848,0.931 1.126,1.726" style="fill:#231f20;fill-opacity:1;fill-rule:nonzero;stroke:none" id="path82"></path></g><g id="g84" transform="translate(277.1123,63.7441)"><path d="m 0,0 -0.24,1.736 c 0.411,-0.107 0.761,-0.17 1.071,-0.17 0.418,0 0.747,0.067 0.987,0.205 0.258,0.138 0.469,0.344 0.626,0.588 0.101,0.188 0.295,0.647 0.572,1.399 0.034,0.1 0.084,0.249 0.155,0.45 L -0.985,15.28 H 0.973 L 3.276,8.895 c 0.311,-0.81 0.569,-1.658 0.816,-2.55 0.203,0.847 0.45,1.683 0.744,2.49 L 7.138,15.28 H 8.992 L 4.889,4.051 C 4.432,2.847 4.092,2.013 3.845,1.553 3.519,0.937 3.137,0.486 2.721,0.205 2.287,-0.08 1.786,-0.229 1.192,-0.229 0.831,-0.229 0.434,-0.146 0,0" style="fill:#231f20;fill-opacity:1;fill-rule:nonzero;stroke:none" id="path86"></path></g><g id="g88" transform="translate(89.457,124.2012)"><path d="m 0,0 v 4.373 h -12.596 c 0,0 -11.191,-0.356 -11.447,-14.899 0,0 0,-13.544 9.82,-14.17 H 0 v 4.195 h -10.515 c 0,0 -8.403,-0.409 -8.125,11.151 0,0 0.64,9.35 8.486,9.35 z" style="fill:#ed1d24;fill-opacity:1;fill-rule:nonzero;stroke:none" id="path90"></path></g><path d="m 98.5,139.776 h -5.024 v -5.432 H 98.5 Z" style="fill:#ed1d24;fill-opacity:1;fill-rule:nonzero;stroke:none" id="path92"></path><path d="m 93.478,99.413 h 5.024 v 29.112 h -5.024 z" style="fill:#ed1d24;fill-opacity:1;fill-rule:nonzero;stroke:none" id="path94"></path><g id="g96" transform="translate(107.5791,124.3311)"><path d="M 0,0 H -5.788 V 4.423 H 0 V 15.444 H 4.939 V 4.27 h 8.765 V 0 H 5.127 v -16.972 c 0,0 -0.276,-3.708 2.981,-3.788 h 5.505 v -4.342 H 6.132 c 0,0 -5.943,-0.177 -6.132,6.505 z" style="fill:#ed1d24;fill-opacity:1;fill-rule:nonzero;stroke:none" id="path98"></path></g><g id="g100" transform="translate(129.2344,128.6016)"><path d="m 0,0 h -5.027 v -21.063 c 0,0 0.14,-8.532 10.712,-8.532 h 9.056 c 0,0 1.509,-4.606 -3.639,-4.606 H -4.887 v -4.327 h 17.341 c 0,0 7.59,-0.679 7.712,7.982 V 0 H 15.294 V -25.124 H 5.821 c 0,0 -5.424,0 -5.821,4.874 z" style="fill:#ed1d24;fill-opacity:1;fill-rule:nonzero;stroke:none" id="path102"></path></g><g id="g104" transform="translate(190.4404,115.1162)"><path d="m 0,0 c 0.537,-11.376 -8.545,-11.376 -8.545,-11.376 h -7.704 v 20.59 h 7.704 C 0.397,8.264 0,0 0,0 m -6.377,13.749 h -10.012 v 10.764 h -5.094 v -40.751 h 16.059 c 11.972,1.419 11.107,15.287 11.107,15.287 -0.556,14.36 -12.06,14.7 -12.06,14.7" style="fill:#ed1d24;fill-opacity:1;fill-rule:nonzero;stroke:none" id="path106"></path></g><g id="g108" transform="translate(222.8359,103.4775)"><path d="m 0,0 h -13.076 c 0,0 -4.334,-0.322 -4.524,4.649 0,0 -0.366,4.508 5.508,4.246 H 0 Z m -3.432,24.909 h -17.879 v -4.186 h 15.852 c 6.377,-0.409 5.683,-7.529 5.683,-7.529 h -13.128 c -10.017,0 -10.157,-8.053 -10.157,-8.053 0.416,-9.875 9.081,-9.345 9.081,-9.345 H 4.834 v 21.947 c -0.276,6.894 -8.266,7.166 -8.266,7.166" style="fill:#ed1d24;fill-opacity:1;fill-rule:nonzero;stroke:none" id="path110"></path></g><g id="g112" transform="translate(235.9297,123.9873)"><path d="M 0,0 V -24.713 H -4.743 V 4.128 h 17.342 c 0,0 8.524,-0.401 8.261,-8.113 v -20.728 h -4.743 v 18.688 c 0,0 0.466,6.24 -7.035,6.025 z" style="fill:#ed1d24;fill-opacity:1;fill-rule:nonzero;stroke:none" id="path114"></path></g><g id="g116" transform="translate(265.7139,111.7773)"><path d="M 0,0 V -12.998 H -5.319 V 27.36 h 5.248 V 5.328 h 1.074 l 14.431,10.929 h 6.063 L 7.64,4.499 h 6.046 c 0,0 6.566,-0.005 6.914,-6.662 v -10.474 h -4.332 v 8.032 c 0,0 0.537,4.628 -4.159,4.605 z" style="fill:#ed1d24;fill-opacity:1;fill-rule:nonzero;stroke:none" id="path118"></path></g><g id="g120" transform="translate(16.8145,213.4507)"><path d="m 0,0 c 0,0 36.143,-2.262 78.293,42.152 0,0 19.594,-63.983 97.859,-104.631 0,0 -127.973,50.436 -174.642,-68.508 0,0 30.109,89.58 -1.51,130.987" style="fill:#231f20;fill-opacity:1;fill-rule:nonzero;stroke:none" id="path122"></path></g><g id="g124" transform="translate(126.5488,203.2007)"><path d="M 0,0 C -23.995,28.135 -31.441,52.404 -31.441,52.404 -43.795,39.38 -55.63,30.39 -66.195,24.164 -60.652,17.024 -52.562,6.429 -43.745,-5.642 -31.165,-2.285 -16.597,-0.08 0,0" style="fill:#ed1d24;fill-opacity:1;fill-rule:nonzero;stroke:none" id="path126"></path></g><g id="g128" transform="translate(60.3535,227.3647)"><path d="m 0,0 c -25.468,-15.02 -43.539,-13.915 -43.539,-13.915 8.598,-11.25 12.63,-26.06 13.949,-41.669 9.667,7.843 26.885,19.068 52.043,25.779 C 13.633,-17.734 5.543,-7.14 0,0" style="fill:#dfe0e4;fill-opacity:1;fill-rule:nonzero;stroke:none" id="path130"></path></g><g id="g132" transform="translate(30.7632,171.7803)"><path d="M 0,0 C 3.532,-41.81 -12.438,-89.317 -12.438,-89.317 11.175,-35.972 44.523,-14.716 75.759,-8.264 68.171,3.272 59.836,15.084 52.043,25.779 26.887,19.069 9.667,7.846 0,0" style="fill:#ed1d24;fill-opacity:1;fill-rule:nonzero;stroke:none" id="path134"></path></g></g></g><g id="g136"><g id="g138"><g id="g144"><g id="g146"><path d="m 82.805,197.559 c 7.796,-10.696 16.128,-22.508 23.716,-34.044 v 0 c 43.02,8.89 82.034,-10.279 86.096,-12.363 v 0 c -29.89,15.58 -51.175,34.558 -66.07,52.047 v 0 c -16.594,-0.08 -31.161,-2.285 -43.742,-5.64 m 109.943,-46.474 c -0.044,0.022 -0.087,0.045 -0.131,0.067 v 0 c 0.049,-0.025 0.092,-0.047 0.131,-0.067 m 0.216,-0.114 c -0.005,0.004 -0.08,0.043 -0.216,0.114 v 0 c 0.072,-0.038 0.145,-0.077 0.216,-0.114" style="fill:url(#linearGradient154);stroke:none" id="path156"></path></g></g></g></g></g></svg>