<svg xmlns="http://www.w3.org/2000/svg" width="800px" height="800px" viewBox="0 0 32 32"><defs><style>.cls-1{fill:#77acf1;}.cls-2{fill:#04009a;}</style></defs><g data-name="35. Production" id="_35._Production"><circle class="cls-1" cx="16" cy="27" r="1"></circle><circle class="cls-1" cx="21" cy="27" r="1"></circle><circle class="cls-1" cx="6" cy="27" r="1"></circle><circle class="cls-1" cx="11" cy="27" r="1"></circle><path class="cls-1" d="M14,11h4a0,0,0,0,1,0,0v3a1,1,0,0,1-1,1H15a1,1,0,0,1-1-1V11A0,0,0,0,1,14,11Z"></path><circle class="cls-1" cx="26" cy="27" r="1"></circle><path class="cls-2" d="M27,22H22.82A3,3,0,0,0,23,21V13a3,3,0,0,0-3-3H12a3,3,0,0,0-3,3v8a3,3,0,0,0,.18,1H5A5,5,0,0,0,5,32H27a5,5,0,0,0,0-10ZM11,21V13a1,1,0,0,1,1-1h8a1,1,0,0,1,1,1v8a1,1,0,0,1-1,1H12A1,1,0,0,1,11,21Zm16,9H5a3,3,0,0,1,0-6H27a3,3,0,0,1,0,6Z"></path><path class="cls-2" d="M15,20H14a1,1,0,0,1,0-2h1a1,1,0,0,1,0,2Z"></path><path class="cls-2" d="M24.82,4.62,20,3.25V2a2,2,0,0,0-2-2H14a2,2,0,0,0-2,2V3.25L7.18,4.62A3,3,0,0,0,5,7.51V11a1,1,0,0,0,2,0V7.51a1,1,0,0,1,.72-1L12,5.33V6a2,2,0,0,0,2,2h4a2,2,0,0,0,2-2V5.33l4.28,1.22a1,1,0,0,1,.72,1V11a1,1,0,0,0,2,0V7.51A3,3,0,0,0,24.82,4.62ZM18,6H14V2h4Z"></path></g></svg>