<svg xmlns="http://www.w3.org/2000/svg" width="256" height="256" fill="none"><path fill-rule="evenodd" clip-rule="evenodd" d="M189.946 141.089c-27.057 0-49.13 23.022-49.13 51.503 0 7.358-5.697 13.529-12.817 13.529s-12.817-6.171-12.817-13.529c0-43.434 33.466-78.561 75.001-78.561 7.121 0 12.817 6.171 12.817 13.529-.237 7.358-5.934 13.529-13.054 13.529Z" fill="#E91889"></path><path fill-rule="evenodd" clip-rule="evenodd" d="M127.995 49c7.12 0 12.817 5.934 12.817 13.529 0 28.481 22.073 51.504 49.13 51.504 7.121 0 12.817 6.171 12.817 13.528 0 7.358-5.696 13.529-12.817 13.529-41.298 0-75.001-35.127-75.001-78.561 0-7.595 5.934-13.529 13.054-13.529Z" fill="#FF902A"></path><path fill-rule="evenodd" clip-rule="evenodd" d="M53 127.56c0-7.358 5.696-13.529 12.817-13.529 41.298 0 75.001 35.127 75.001 78.561 0 7.358-5.697 13.529-12.817 13.529s-12.817-6.171-12.817-13.529c0-28.481-22.073-51.503-49.13-51.503-7.358 0-13.054-6.171-13.054-13.529Z" fill="#FFAF44"></path><path fill-rule="evenodd" clip-rule="evenodd" d="M128.001 49c7.12 0 12.817 5.934 12.817 13.529 0 43.434-33.466 78.561-75.001 78.561-7.12 0-12.817-6.171-12.817-13.529 0-7.357 5.696-13.528 12.817-13.528 27.057 0 49.13-23.023 49.13-51.504 0-7.595 5.934-13.529 13.054-13.529Z" fill="#6020D6"></path><path d="M140.816 192.591c0-16.376-4.747-31.566-12.817-44.146-8.07 12.58-12.817 27.77-12.817 44.146 0 7.358 5.697 13.529 12.817 13.529 6.883 0 12.817-5.933 12.817-13.529Z" fill="#FF748D"></path><path d="M140.816 62.529c0-7.358-5.697-13.529-12.817-13.529s-12.817 5.934-12.817 13.529c0 16.377 4.747 31.567 12.817 44.146 8.07-12.58 12.817-27.77 12.817-44.146Z" fill="#9715B0"></path><path d="M147.942 127.56c11.867-8.545 26.345-13.529 42.01-13.529 7.121 0 12.817 6.171 12.817 13.529s-5.696 13.529-12.817 13.529c-15.665 0-30.143-4.985-42.01-13.529Z" fill="#EF1F64"></path><path d="M65.817 141.089c15.664 0 30.143-4.985 42.01-13.529-11.867-8.545-26.346-13.529-42.01-13.529-7.12 0-12.817 6.171-12.817 13.529s5.696 13.529 12.817 13.529Z" fill="#9457FF"></path></svg>