<svg xmlns="http://www.w3.org/2000/svg" xmlns:xlink="http://www.w3.org/1999/xlink" id="Layer_1" x="0px" y="0px" viewBox="0 0 502.8 160.6" style="enable-background:new 0 0 502.8 160.6;" xml:space="preserve"><style type="text/css">	.st0{fill:#003399;}	.st1{fill:#FFFFFF;}</style><g>	<g>		<g>			<path class="st0" d="M175.5,55.2c-1.2-2.8-3.1-5.1-5.7-6.8c-2.6-1.7-5.5-2.5-8.8-2.5c-3.2,0-6.2,0.7-8.9,2.2    c-1.4,0.8-2.8,1.8-4.1,3v-4.2h-8.6v42.8h8.6V73.5c0-6.2,0.4-9,0.7-10.2c0.7-2.6,2.1-4.8,4.2-6.6c2.1-1.7,4.5-2.6,7.1-2.6    c2.2,0,4.1,0.5,5.4,1.6c1.3,1,2.2,2.7,2.7,4.9c0.2,0.9,0.5,3.2,0.5,8.6v20.5h8.6v-22C177.2,62.2,176.7,57.9,175.5,55.2"></path>			<path class="st0" d="M248.5,59.2c0.2-0.2,0.4-0.4,0.5-0.5c2.6-2.6,5.8-3.9,9.8-3.9l0.1-1.3v1.3c3.6,0,6.7,1.4,9.6,4.2l0.1,0.1    c0.1,0.1,0.2,0.2,0.4,0.4c2.4,2.3,3.5,5.3,3.5,9.1c0,3.8-1.3,6.9-4,9.6c-2.7,2.7-5.9,4-9.8,4c-4.1,0-7.2-1.2-9.7-3.5    c-1.3-1.2-2.3-2.8-3.1-4.8c-0.7-1.8-1.1-3.6-1.1-5.3C244.9,64.8,246.1,61.6,248.5,59.2 M274.4,53.2c-4.3-4.3-9.5-6.5-15.5-6.5    c-5.1,0-9.6,1.6-13.7,4.9V47h-8.3v74.8h8.3V85.8c3.8,3.1,8.4,4.7,13.7,4.7c2.9,0,5.8-0.6,8.4-1.6c4.1-1.6,7.4-4.3,9.8-8    c2.5-3.7,3.7-7.8,3.7-12.2C280.9,62.7,278.7,57.4,274.4,53.2"></path>			<path class="st0" d="M121.5,64c-3.6-1.8-5-3-5.5-3.7c-0.7-0.8-1-1.6-1-2.5c0-1,0.4-1.7,1.2-2.5c0.8-0.8,1.8-1.2,3-1.2    c2.1,0,4.3,1.2,6.7,3.4l1.3,1.2l5.7-5.9l-1.3-1.2c-4-3.8-8.1-5.8-12.1-5.8c-3.6,0-6.6,1.2-8.9,3.5c-2.4,2.3-3.6,5.2-3.6,8.7    c0,2.7,0.8,5.1,2.3,7.1c1.4,2,4.1,4,7.9,6c3.8,2,5.3,3.1,5.8,3.7c0.7,0.8,1,1.7,1,2.7c0,1.3-0.5,2.3-1.6,3.3    c-1.1,1-2.4,1.5-4,1.5c-2.4,0-4.7-1.3-6.9-3.8l-1.3-1.5l-5.5,6.2l0.9,1.2c1.5,1.9,3.4,3.5,5.7,4.6c2.3,1.1,4.7,1.7,7.3,1.7    c3.9,0,7.1-1.3,9.7-3.9c2.6-2.6,3.9-5.7,3.9-9.4c0-2.7-0.8-5.1-2.3-7.2C128.2,68.1,125.4,66.1,121.5,64"></path>			<path class="st0" d="M220.3,68.6c0,2.7-0.6,5.1-1.8,7.2c-1.2,2.1-2.9,3.7-5,5c-4.3,2.4-9.7,2.4-13.8,0c-2.1-1.2-3.8-3-5.1-5.2    c-1.3-2.2-1.9-4.6-1.9-7.1c0-2.5,0.6-4.8,1.9-7.1c1.2-2.2,2.9-3.9,5-5.2c2.1-1.2,4.4-1.8,6.9-1.8c3.9,0,7.1,1.4,9.8,4    C218.9,61.2,220.3,64.6,220.3,68.6 M219.9,47v4.3c-1.3-1.2-2.8-2.2-4.3-3c-2.9-1.5-6.1-2.3-9.6-2.3c-6,0-11.3,2.2-15.6,6.6    c-4.3,4.3-6.5,9.6-6.5,15.7c0,6.2,2.2,11.6,6.4,15.9c4.3,4.4,9.5,6.6,15.5,6.6c3.4,0,6.6-0.7,9.4-2.1c1.6-0.8,3.1-1.8,4.6-3v4.2    h8.5V47H219.9z"></path>		</g>		<polygon class="st0" points="296.5,80.8 296.5,19 287.8,19 287.8,89.1 315.7,89.1 315.7,80.8   "></polygon>		<path class="st0" d="M468.1,77.7l-0.9,0.9c-2.7,2.7-5.9,4-9.8,4c-3.9,0-7.1-1.3-9.6-3.8c-2.5-2.6-3.7-5.8-3.7-9.8   c0-4,1.1-7.2,3.4-9.5c0.2-0.2,0.4-0.4,0.5-0.5c2.5-2.5,5.6-3.7,9.4-3.7c3.9,0,7,1.3,9.6,3.9l0.9,0.9l5.7-5.9l-0.9-0.9   c-4.3-4.1-9.4-6.1-15.3-6.1c-6,0-11.2,2.1-15.5,6.4c-4.2,4.2-6.4,9.4-6.4,15.5c0,6.1,2.1,11.3,6.3,15.5c4.2,4.2,9.4,6.3,15.5,6.3   c6,0,11.3-2.1,15.6-6.3l0.9-0.9L468.1,77.7z"></path>		<path class="st0" d="M400.9,129.9c-2.6,2.6-5.6,3.9-9.1,3.9c-3.5,0-6.7-1.4-9.6-4.4c-2.6-2.6-3.9-5.7-3.9-9.6c0-4,1.3-7.2,3.9-9.8   l0.3-0.3c2.6-2.6,5.7-3.9,9.3-3.9c3.6,0,6.8,1.4,9.6,4.2c2.5,2.5,3.7,5.7,3.7,9.8C405.1,123.8,403.7,127.1,400.9,129.9    M378.3,69.1c0-4,1.3-7.2,3.9-9.8l0.3-0.3c2.6-2.6,5.7-3.9,9.3-3.9c3.6,0,6.8,1.4,9.6,4.2c2.5,2.5,3.7,5.7,3.7,9.8   c0,4-1.4,7.3-4.2,10.1c-2.6,2.6-5.6,3.9-9.1,3.9c-3.5,0-6.7-1.4-9.6-4.4C379.5,76.1,378.3,72.9,378.3,69.1 M350.2,79.1   c-2.6,2.6-5.6,3.9-9.1,3.9c-3.5,0-6.7-1.4-9.6-4.4c-2.6-2.6-3.9-5.7-3.9-9.6c0-4,1.3-7.2,3.9-9.8l0.3-0.3c2.6-2.6,5.7-3.9,9.3-3.9   c3.6,0,6.8,1.4,9.6,4.2c2.5,2.5,3.7,5.7,3.7,9.8C354.4,73,353,76.3,350.2,79.1 M395.9,98.2v-7.7c4.3-0.8,8.1-2.7,11.3-5.9   c4.2-4.1,6.3-9.3,6.3-15.5c0-6.2-2.1-11.5-6.3-15.7c-4.2-4.2-9.4-6.3-15.4-6.3c-6.1,0-11.3,2.2-15.6,6.4c-3.2,3.2-5.2,7-6,11.2   h-7.7c-0.8-4.4-2.7-8.2-5.9-11.4c-4.2-4.2-9.4-6.3-15.4-6.3c-6.1,0-11.3,2.2-15.6,6.4c-4.3,4.3-6.4,9.5-6.4,15.6   c0,2.8,0.5,5.6,1.6,8.3c1.1,2.9,2.7,5.3,4.7,7.2c4.4,4.2,9.7,6.3,15.7,6.3c6,0,11.2-2.1,15.5-6.3c3.2-3.1,5.2-6.9,5.9-11.3h7.7   c0.3,1.4,0.7,2.8,1.2,4.2c1.1,2.9,2.7,5.3,4.7,7.2c3.3,3.1,7.1,5.1,11.3,5.9v7.8c-4.2,0.8-8,2.8-11.2,6c-4.3,4.3-6.4,9.5-6.4,15.6   c0,2.8,0.5,5.6,1.6,8.3c1.1,2.9,2.7,5.3,4.7,7.2c4.4,4.2,9.7,6.3,15.7,6.3c6,0,11.2-2.1,15.5-6.3c4.2-4.1,6.3-9.3,6.3-15.5   c0-6.2-2.1-11.5-6.3-15.7C404,100.9,400.2,98.9,395.9,98.2"></path>		<rect x="420.1" y="48.2" class="st0" width="8.9" height="40.9"></rect>		<path class="st0" d="M424.5,44.9c1.6,0,3.1-0.6,4.2-1.7c1.2-1.2,1.7-2.6,1.7-4.2c0-1.6-0.6-3.1-1.7-4.2c-1.1-1.1-2.6-1.7-4.2-1.7   c-1.6,0-3.1,0.6-4.2,1.7c-1.1,1.1-1.7,2.6-1.7,4.2c0,1.6,0.6,3,1.7,4.2C421.5,44.3,423,44.9,424.5,44.9"></path>		<g>			<path class="st0" d="M482.6,48.8c2.7,0,5,2.2,5,5c0,2.8-2.2,5-5,5c-2.8,0-5-2.2-5-5C477.6,51,479.8,48.8,482.6,48.8z M482.6,58.2    c2.5,0,4.5-2,4.5-4.5c0-2.5-2-4.5-4.5-4.5c-2.5,0-4.5,2-4.5,4.5C478.1,56.2,480.1,58.2,482.6,58.2z M483.4,54.2l1.3,1.9    c0.1,0.2,0,0.2-0.2,0.2H484c-0.1,0-0.2,0-0.3-0.1l-1.2-1.9h-0.7v1.9c0,0.1,0,0.1-0.2,0.1H481c-0.1,0-0.2,0-0.2-0.1v-4.7    c0-0.1,0.1-0.1,0.2-0.1h1.7c0.8,0,1.8,0.3,1.8,1.5C484.5,53.6,484,54,483.4,54.2z M482.7,53.5c0.6,0,0.9-0.3,0.9-0.8    c0-0.5-0.3-0.7-0.9-0.7h-1v1.5H482.7z"></path>		</g>	</g>	<g>		<circle class="st0" cx="49.9" cy="67.1" r="34.6"></circle>		<g>			<g>				<path class="st1" d="M63,80.7c-1,1-2.1,1.5-3.5,1.5c-1.4,0-2.6-0.6-3.7-1.7c-1-1-1.5-2.2-1.5-3.7c0-1.5,0.5-2.8,1.5-3.7l0.1-0.1     c1-1,2.2-1.5,3.6-1.5s2.6,0.5,3.7,1.6c1,1,1.4,2.2,1.4,3.7C64.6,78.4,64,79.6,63,80.7 M54.4,57.5c0-1.5,0.5-2.8,1.5-3.7l0.1-0.1     c1-1,2.2-1.5,3.6-1.5s2.6,0.5,3.7,1.6c1,1,1.4,2.2,1.4,3.7c0,1.5-0.5,2.8-1.6,3.9c-1,1-2.1,1.5-3.5,1.5s-2.6-0.6-3.7-1.7     C54.8,60.2,54.4,59,54.4,57.5 M43.7,61.4c-1,1-2.1,1.5-3.5,1.5c-1.3,0-2.6-0.6-3.7-1.7c-1-1-1.5-2.2-1.5-3.7     c0-1.5,0.5-2.7,1.5-3.7l0.1-0.1c1-1,2.2-1.5,3.6-1.5c1.4,0,2.6,0.5,3.7,1.6c1,1,1.4,2.2,1.4,3.7C45.3,59,44.7,60.3,43.7,61.4      M61.1,68.6v-2.9c1.6-0.3,3.1-1,4.3-2.3c1.6-1.5,2.4-3.5,2.4-5.9s-0.8-4.4-2.4-6c-1.6-1.6-3.6-2.4-5.9-2.4s-4.3,0.8-5.9,2.4     c-1.2,1.2-2,2.7-2.3,4.3h-2.9c-0.3-1.7-1-3.1-2.3-4.3c-1.6-1.6-3.6-2.4-5.9-2.4s-4.3,0.8-5.9,2.4c-1.6,1.6-2.4,3.6-2.4,5.9     c0,1.1,0.2,2.1,0.6,3.2c0.4,1.1,1,2,1.8,2.7c1.7,1.6,3.7,2.4,6,2.4s4.3-0.8,5.9-2.4c1.2-1.2,2-2.6,2.3-4.3h2.9     c0.1,0.6,0.3,1.1,0.5,1.6c0.4,1.1,1,2,1.8,2.7c1.2,1.2,2.7,1.9,4.3,2.2v3c-1.6,0.3-3,1.1-4.3,2.3c-1.6,1.6-2.4,3.6-2.4,5.9     c0,1.1,0.2,2.1,0.6,3.2c0.4,1.1,1,2,1.8,2.7c1.7,1.6,3.7,2.4,6,2.4c2.3,0,4.3-0.8,5.9-2.4c1.6-1.5,2.4-3.5,2.4-5.9     s-0.8-4.4-2.4-6C64.2,69.6,62.7,68.9,61.1,68.6"></path>			</g>		</g>	</g></g></svg>