<svg xmlns="http://www.w3.org/2000/svg" xmlns:xlink="http://www.w3.org/1999/xlink" fill="#4a6ae8" height="800px" width="800px" id="Layer_1" viewBox="0 0 496 496" xml:space="preserve" stroke="#4a6ae8"><g id="SVGRepo_bgCarrier" stroke-width="0"></g><g id="SVGRepo_tracerCarrier" stroke-linecap="round" stroke-linejoin="round"></g><g id="SVGRepo_iconCarrier"> <g> <g> <g> <path d="M424,73.432V24c0-13.232-10.768-24-24-24H96.008C82.776,0,72,10.768,72,24v49.424C24,120.192,0,182.024,0,248 c0,136.752,111.248,248,248,248s248-111.248,248-248C496,182.032,470.424,120.2,424,73.432z M424,96.976 c1.928,2.24,3.8,4.512,5.64,6.816c-1.432,1.52-3.304,3.344-5.64,5.44V96.976z M424,232V129.76c6.672-4.92,11.736-9.416,15.32-13 c24.952,36.168,38.976,78.568,40.48,123.24h-57.272C423.424,237.488,424,234.816,424,232z M88,24c0-4.416,3.592-8,8.008-8H400 c4.416,0,8,3.584,8,8v168H88V24z M88,208h320v24c0,4.416-3.584,8-8,8H96.008c-4.416,0-8.008-3.584-8.008-8V208z M344,272v-16 h15.8c-0.168,5.408-0.464,10.752-0.952,16H344z M356.864,288c-2.36,15.176-5.968,29.624-10.464,43.288 c-24.504-6.264-54.36-10.608-90.4-11.184V288H356.864z M152,256v16h-14.848c-0.488-5.248-0.784-10.592-0.952-16H152z M72.008,96.96v12.272c-2.336-2.096-4.208-3.928-5.64-5.448C68.208,101.48,70.08,99.208,72.008,96.96z M56.672,116.768 c3.584,3.584,7.328,8.08,15.328,13V232c0,2.816,0.584,5.488,1.48,8H16.2C17.696,195.328,31.72,152.928,56.672,116.768z M16.2,256 h79.808h24.184c0.152,5.408,0.44,10.744,0.888,16H104v16h18.856c2.408,16.816,6.248,32.736,11.088,47.736 c-42.792,13.544-66.448,32.536-77.224,43.352C32.48,343.824,17.76,301.56,16.2,256z M66.432,392.16 c8.2-8.544,30.192-27.576,72.904-41.128c23.648,61.84,63.32,106.008,86.208,127.856 C161.248,472.688,104.584,440.112,66.432,392.16z M240,470.312c-20.576-19.352-60.936-62.704-84.888-123.752 c23-5.816,51.04-9.888,84.888-10.456V470.312z M240,320.104c-36.04,0.568-65.896,4.92-90.4,11.184 c-4.496-13.664-8.104-28.112-10.464-43.288H240V320.104z M168,272v-16h160v16H168z M256,470.312V336.104 c33.848,0.56,61.888,4.64,84.888,10.456C316.936,407.608,276.576,450.96,256,470.312z M270.456,478.896 c22.896-21.848,62.568-66.016,86.208-127.856c42.712,13.544,64.704,32.584,72.904,41.128 C391.416,440.112,334.752,472.688,270.456,478.896z M439.28,379.088c-10.776-10.816-34.432-29.808-77.224-43.352 c4.84-15.008,8.68-30.928,11.088-47.736H392v-16h-17.08c0.448-5.256,0.728-10.592,0.888-16H400h79.8 C478.248,301.56,463.528,343.824,439.28,379.088z"></path> <path d="M292.784,70.528l11.784-11.784l-11.312-11.312l-11.784,11.784C274.152,53.728,265.464,50,256,48.64V32h-16v16.64 c-9.464,1.36-18.152,5.088-25.472,10.576l-11.784-11.784l-11.312,11.312l11.784,11.784C197.728,77.848,194,86.536,192.64,96H176 v16h16.64c1.36,9.464,5.088,18.152,10.576,25.472l-11.784,11.784l11.312,11.312l11.784-11.784 c7.32,5.488,16.008,9.208,25.472,10.576V176h16v-16.64c9.464-1.36,18.152-5.088,25.472-10.576l11.784,11.784l11.312-11.312 l-11.784-11.784c5.488-7.32,9.208-16.008,10.576-25.472H320V96h-16.64C302,86.536,298.272,77.848,292.784,70.528z M248,144 c-22.056,0-40-17.944-40-40c0-22.056,17.944-40,40-40c22.056,0,40,17.944,40,40C288,126.056,270.056,144,248,144z"></path> <circle cx="248" cy="104" r="8"></circle> </g> </g> </g> </g></svg>