<svg xmlns="http://www.w3.org/2000/svg" xmlns:xlink="http://www.w3.org/1999/xlink" id="Lag_1" x="0px" y="0px" viewBox="0 0 427 94.5" style="enable-background:new 0 0 427 94.5;" xml:space="preserve"><style type="text/css">	.st0{fill:#A2A3A2;}	.st1{fill:#E7236F;}</style><g>	<path class="st0" d="M148.1,47.1c10.7-0.3,19.6-11.1,19.6-22.2v-0.2c0-5.9-2-11-5.6-14.6c-4.4-4.3-11.1-6.8-19.6-6.8h-30.3V14h29.3  c8.8,0,14.1,4,14.1,11.3v0.2c0,6.9-5.4,11.3-14,11.3h-29.4v34.2h11.9V47.4h11.6l20,23.7h14.1L148.1,47.1z"></path>	<path class="st0" d="M277.1,3.2h-26.8v10.9h25.8c8.9,0,14.6,4.2,14.6,12.1v0.2c0,7.1-5.6,12.1-14.6,12.1h-25.8v32.6h11.9V49.3h13.5  c14.9,0,27.2-8,27.2-23.2v-0.2C302.9,12.2,293,3.2,277.1,3.2"></path></g><rect x="312.8" y="3.2" class="st0" width="11.9" height="67.9"></rect><rect x="414.3" y="3.2" class="st0" width="11.9" height="67.9"></rect><g>	<path class="st0" d="M366.6,3.2h-25.3v10.9h11.9h5.5h7.9c14.3,0,23.6,9.8,23.6,23.1v0.2c0,13.3-9.3,22.9-23.6,22.9h-13.4V38.5  h-11.9v32.6h25.3c21.3,0,36.1-14.8,36.1-34v-0.2C402.7,17.8,388,3.2,366.6,3.2"></path></g><polygon class="st0" points="202.3,2.7 172.5,71.1 184.7,71.1 207.7,17 230.7,71.1 243.3,71.1 213.4,2.7 "></polygon><g>	<path d="M32.8,84.6v8.6h2.5c2.7,0,4.5-1.9,4.5-4.3v0c0-2.4-1.8-4.3-4.5-4.3H32.8z M31.5,83.5h3.8c3.4,0,5.8,2.3,5.8,5.4v0  c0,3.1-2.4,5.4-5.8,5.4h-3.8V83.5z"></path></g><path d="M48.5,84.9l2.5,5.5h-5L48.5,84.9z M47.9,83.4l-5,11h1.3l1.3-2.9h5.9l1.3,2.9H54l-5-11H47.9z"></path><polygon points="54.9,83.5 54.9,84.6 58.6,84.6 58.6,94.4 59.8,94.4 59.8,84.6 63.5,84.6 63.5,83.5 "></polygon><path d="M69.9,84.9l2.5,5.5h-5L69.9,84.9z M69.3,83.4l-5,11h1.3l1.3-2.9h5.9l1.3,2.9h1.3l-5-11H69.3z"></path><rect x="84.2" y="83.5" width="1.2" height="10.9"></rect><polygon points="97.5,83.5 97.5,92.2 90.6,83.5 89.5,83.5 89.5,94.4 90.7,94.4 90.7,85.5 97.7,94.4 98.7,94.4 98.7,83.5 "></polygon><polygon points="101.9,83.5 101.9,84.6 105.6,84.6 105.6,94.4 106.8,94.4 106.8,84.6 110.5,84.6 110.5,83.5 "></polygon><polygon points="113.7,83.5 113.7,94.4 121.6,94.4 121.6,93.3 114.9,93.3 114.9,89.5 120.9,89.5 120.9,88.3 114.9,88.3 114.9,84.6  121.6,84.6 121.6,83.5 "></polygon><g>	<path d="M124.5,89L124.5,89c0-3,2.2-5.7,5.5-5.7c1.8,0,3,0.5,4.1,1.4l-0.8,0.9c-0.8-0.7-1.8-1.2-3.3-1.2c-2.4,0-4.1,2-4.1,4.5v0  c0,2.6,1.7,4.5,4.3,4.5c1.2,0,2.4-0.5,3.1-1.1v-2.7h-3.3v-1.1h4.5v4.3c-1,0.9-2.5,1.7-4.4,1.7C126.6,94.6,124.5,92.1,124.5,89"></path>	<path d="M142.7,89c1.6,0,2.8-0.8,2.8-2.2v0c0-1.3-1-2.1-2.8-2.1h-3.4V89H142.7z M138.1,83.5h4.7c1.3,0,2.4,0.4,3.1,1.1  c0.5,0.5,0.8,1.3,0.8,2.1v0c0,1.8-1.2,2.9-3,3.2l3.3,4.4h-1.5l-3.2-4.2h-3.1v4.2h-1.2V83.5z"></path></g><path d="M154.9,84.9l2.5,5.5h-5L154.9,84.9z M154.3,83.4l-5,11h1.3l1.3-2.9h5.9l1.3,2.9h1.3l-5-11H154.3z"></path><polygon points="161.3,83.5 161.3,84.6 165,84.6 165,94.4 166.2,94.4 166.2,84.6 169.9,84.6 169.9,83.5 "></polygon><rect x="173.2" y="83.5" width="1.2" height="10.9"></rect><g>	<path d="M187.9,89L187.9,89c0-2.5-1.8-4.5-4.3-4.5c-2.5,0-4.3,2-4.3,4.5v0c0,2.5,1.8,4.5,4.3,4.5C186.1,93.4,187.9,91.4,187.9,89   M178.1,89L178.1,89c0-3,2.3-5.7,5.6-5.7c3.3,0,5.5,2.6,5.5,5.6v0c0,3-2.3,5.6-5.6,5.6C180.3,94.6,178.1,92,178.1,89"></path></g><polygon points="200.7,83.5 200.7,92.2 193.9,83.5 192.7,83.5 192.7,94.4 193.9,94.4 193.9,85.5 200.9,94.4 201.9,94.4 201.9,83.5  "></polygon><rect x="211.6" y="83.5" width="1.2" height="10.9"></rect><g>	<path d="M216.2,92.8l0.8-0.9c1.1,1,2.2,1.5,3.7,1.5c1.5,0,2.4-0.8,2.4-1.8v0c0-1-0.5-1.6-2.8-2.1c-2.5-0.5-3.6-1.4-3.6-3.1v0  c0-1.7,1.5-3,3.6-3c1.6,0,2.7,0.5,3.8,1.3l-0.7,0.9c-1-0.8-2-1.2-3.1-1.2c-1.4,0-2.3,0.8-2.3,1.8v0c0,1,0.6,1.6,3,2.1  c2.4,0.5,3.5,1.4,3.5,3.1v0c0,1.9-1.6,3.1-3.7,3.1C218.9,94.5,217.5,94,216.2,92.8"></path></g><path d="M237.9,84.9l2.5,5.5h-5L237.9,84.9z M237.3,83.4l-5,11h1.3l1.3-2.9h5.9l1.3,2.9h1.3l-5-11H237.3z"></path><g>	<path d="M256,89.4c1.8,0,3-1,3-2.4v0c0-1.6-1.2-2.4-2.9-2.4h-2.8v4.8H256z M252,83.5h4.1c2.5,0,4.1,1.3,4.1,3.4v0  c0,2.3-2,3.6-4.3,3.6h-2.6v3.8H252V83.5z"></path></g><polygon points="263.3,83.5 263.3,94.4 271.3,94.4 271.3,93.3 264.6,93.3 264.6,89.5 270.5,89.5 270.5,88.3 264.6,88.3 264.6,84.6  271.2,84.6 271.2,83.5 "></polygon><g>	<path d="M284,89L284,89c0-2.5-1.8-4.5-4.3-4.5c-2.5,0-4.3,2-4.3,4.5v0c0,2.5,1.8,4.5,4.3,4.5C282.3,93.4,284,91.4,284,89 M274.2,89  L274.2,89c0-3,2.3-5.7,5.6-5.7c3.3,0,5.5,2.6,5.5,5.6v0c0,3-2.3,5.6-5.6,5.6C276.4,94.6,274.2,92,274.2,89"></path>	<path d="M292.7,89.4c1.8,0,3-1,3-2.4v0c0-1.6-1.2-2.4-2.9-2.4h-2.8v4.8H292.7z M288.8,83.5h4.1c2.5,0,4.1,1.3,4.1,3.4v0  c0,2.3-2,3.6-4.3,3.6h-2.6v3.8h-1.2V83.5z"></path></g><polygon points="300.1,83.5 300.1,94.4 307.5,94.4 307.5,93.2 301.4,93.2 301.4,83.5 "></polygon><polygon points="310.7,83.5 310.7,94.4 318.6,94.4 318.6,93.3 311.9,93.3 311.9,89.5 317.8,89.5 317.8,88.3 311.9,88.3 311.9,84.6  318.5,84.6 318.5,83.5 "></polygon><g>	<path d="M321.3,86.5c0.8-0.3,1.1-0.7,1-1.4h-0.6v-1.6h1.4v1.4c0,1.3-0.5,1.9-1.7,2.1L321.3,86.5z"></path>	<path d="M326,92.8l0.8-0.9c1.1,1,2.2,1.5,3.7,1.5c1.5,0,2.4-0.8,2.4-1.8v0c0-1-0.5-1.6-2.8-2.1c-2.5-0.5-3.7-1.4-3.7-3.1v0  c0-1.7,1.5-3,3.6-3c1.6,0,2.7,0.5,3.8,1.3l-0.7,0.9c-1-0.8-2-1.2-3.1-1.2c-1.4,0-2.3,0.8-2.3,1.8v0c0,1,0.6,1.6,3,2.1  c2.4,0.5,3.5,1.4,3.5,3.1v0c0,1.9-1.6,3.1-3.7,3.1C328.7,94.5,327.3,94,326,92.8"></path>	<path d="M347.8,89.4h-3.4v3.8h3.6c1.6,0,2.7-0.7,2.7-1.9v0C350.7,90.1,349.7,89.4,347.8,89.4 M350.1,86.4c0-1.1-0.9-1.8-2.4-1.8  h-3.3v3.7h3.2C349,88.3,350.1,87.7,350.1,86.4L350.1,86.4z M343.1,83.5h4.6c1.2,0,2.2,0.4,2.8,1c0.5,0.5,0.7,1,0.7,1.7v0  c0,1.4-0.9,2.1-1.7,2.5c1.3,0.4,2.3,1.1,2.3,2.6v0c0,1.9-1.6,3-3.9,3h-4.8V83.5z"></path>	<path d="M355.1,89.8v-6.3h1.2v6.2c0,2.3,1.3,3.7,3.3,3.7c2,0,3.3-1.2,3.3-3.6v-6.3h1.2v6.2c0,3.2-1.8,4.8-4.5,4.8  C356.9,94.5,355.1,92.9,355.1,89.8"></path>	<path d="M367.3,92.8l0.8-0.9c1.1,1,2.2,1.5,3.7,1.5c1.5,0,2.4-0.8,2.4-1.8v0c0-1-0.5-1.6-2.8-2.1c-2.5-0.5-3.6-1.4-3.6-3.1v0  c0-1.7,1.5-3,3.6-3c1.6,0,2.7,0.5,3.8,1.3l-0.7,0.9c-1-0.8-2-1.2-3.1-1.2c-1.4,0-2.3,0.8-2.3,1.8v0c0,1,0.6,1.6,3,2.1  c2.4,0.5,3.5,1.4,3.5,3.1v0c0,1.9-1.6,3.1-3.7,3.1C370,94.5,368.6,94,367.3,92.8"></path></g><rect x="379" y="83.5" width="1.2" height="10.9"></rect><polygon points="392.3,83.5 392.3,92.2 385.5,83.5 384.3,83.5 384.3,94.4 385.5,94.4 385.5,85.5 392.5,94.4 393.5,94.4 393.5,83.5  "></polygon><polygon points="397.5,83.5 397.5,94.4 405.5,94.4 405.5,93.3 398.7,93.3 398.7,89.5 404.7,89.5 404.7,88.3 398.7,88.3 398.7,84.6  405.4,84.6 405.4,83.5 "></polygon><g>	<path d="M408.1,92.8l0.8-0.9c1.1,1,2.2,1.5,3.7,1.5c1.5,0,2.4-0.8,2.4-1.8v0c0-1-0.5-1.6-2.8-2.1c-2.5-0.5-3.6-1.4-3.6-3.1v0  c0-1.7,1.5-3,3.6-3c1.6,0,2.7,0.5,3.8,1.3l-0.7,0.9c-1-0.8-2-1.2-3.1-1.2c-1.4,0-2.3,0.8-2.3,1.8v0c0,1,0.6,1.6,3,2.1  c2.4,0.5,3.5,1.4,3.5,3.1v0c0,1.9-1.6,3.1-3.7,3.1C410.8,94.5,409.4,94,408.1,92.8"></path>	<path d="M418.8,92.8l0.8-0.9c1.1,1,2.2,1.5,3.7,1.5c1.5,0,2.4-0.8,2.4-1.8v0c0-1-0.5-1.6-2.8-2.1c-2.5-0.5-3.6-1.4-3.6-3.1v0  c0-1.7,1.5-3,3.6-3c1.6,0,2.7,0.5,3.8,1.3l-0.7,0.9c-1-0.8-2-1.2-3.1-1.2c-1.4,0-2.3,0.8-2.3,1.8v0c0,1,0.6,1.6,3,2.1  c2.4,0.5,3.5,1.4,3.5,3.1v0c0,1.9-1.6,3.1-3.7,3.1C421.6,94.5,420.1,94,418.8,92.8"></path>	<path class="st1" d="M26.1,56.8c0-1-0.8-1.7-1.7-1.7c-1,0-1.7,0.8-1.7,1.7c0,1,0.8,1.7,1.7,1.7C25.4,58.6,26.1,57.8,26.1,56.8   M24.4,61.2c-2.4,0-4.4-1.9-4.4-4.4c0-2.4,1.9-4.4,4.4-4.4s4.4,1.9,4.4,4.4C28.8,59.2,26.8,61.2,24.4,61.2"></path>	<path class="st1" d="M6.5,47.8c0-1-0.8-1.7-1.7-1.7S3,46.8,3,47.8c0,1,0.8,1.7,1.7,1.7S6.5,48.7,6.5,47.8 M4.7,52.1  c-2.4,0-4.4-1.9-4.4-4.4c0-2.4,1.9-4.4,4.4-4.4s4.4,1.9,4.4,4.4C9.1,50.2,7.1,52.1,4.7,52.1"></path>	<path class="st1" d="M14,39.9c0-1-0.8-1.7-1.7-1.7s-1.7,0.8-1.7,1.7c0,1,0.8,1.7,1.7,1.7S14,40.9,14,39.9 M12.3,44.3  c-2.4,0-4.4-1.9-4.4-4.4c0-2.4,1.9-4.4,4.4-4.4s4.4,1.9,4.4,4.4C16.6,42.3,14.7,44.3,12.3,44.3"></path>	<path class="st1" d="M11.1,22.7c0-1-0.8-1.7-1.7-1.7s-1.7,0.8-1.7,1.7c0,1,0.8,1.7,1.7,1.7S11.1,23.7,11.1,22.7 M9.4,27.1  C7,27.1,5,25.1,5,22.7c0-2.4,1.9-4.4,4.4-4.4s4.4,1.9,4.4,4.4C13.7,25.1,11.8,27.1,9.4,27.1"></path>	<path class="st1" d="M17.5,15c0-1-0.8-1.7-1.7-1.7s-1.7,0.8-1.7,1.7c0,1,0.8,1.7,1.7,1.7S17.5,16,17.5,15 M15.8,19.4  c-2.4,0-4.4-1.9-4.4-4.4c0-2.4,1.9-4.4,4.4-4.4s4.4,1.9,4.4,4.4C20.2,17.4,18.2,19.4,15.8,19.4"></path>	<path class="st1" d="M21.5,32.1c0-1-0.8-1.7-1.7-1.7c-1,0-1.7,0.8-1.7,1.7c0,1,0.8,1.7,1.7,1.7C20.7,33.8,21.5,33.1,21.5,32.1   M19.8,36.5c-2.4,0-4.4-1.9-4.4-4.4c0-2.4,1.9-4.4,4.4-4.4s4.4,1.9,4.4,4.4C24.1,34.5,22.2,36.5,19.8,36.5"></path>	<path class="st1" d="M76.6,40.9h-9.9c-0.5,0-0.9-0.4-0.9-0.9c0-0.5,0.4-0.9,0.9-0.9h9.9c0.5,0,0.9,0.4,0.9,0.9  C77.5,40.4,77.1,40.9,76.6,40.9 M66,0C54.3,0,44,5.5,37.4,14.1h32.8c0.5,0,0.9,0.4,0.9,0.9s-0.4,0.9-0.9,0.9H36.1  c-1.3,1.9-2.4,3.9-3.3,6h46.9c0.5,0,0.9,0.4,0.9,0.9c0,0.5-0.4,0.9-0.9,0.9H32.2c-0.9,2.4-1.5,4.9-1.8,7.5h49.5  c0.5,0,0.9,0.4,0.9,0.9c0,0.5-0.4,0.9-0.9,0.9H30.2C30.1,34,30,35,30,35.9c0,1,0.1,2.1,0.1,3.1h27.8c0,0,0,0,0,0  c0.1,0,0.2,0,0.3,0.1c0,0,0,0,0.1,0c0,0,0,0,0.1,0c0.1,0,0.2,0.1,0.2,0.2c0,0,0,0,0,0l17.3,17.9h8.6c0.5,0,0.9,0.4,0.9,0.9  c0,0.5-0.4,0.9-0.9,0.9h-9c0,0-0.5,0-1.7-1.3L57.6,40.9H30.4c0.3,2.1,0.7,4.1,1.4,6h18.5c0.5,0,0.9,0.4,0.9,0.9  c0,0.5-0.4,0.9-0.9,0.9H32.4c1,2.6,2.2,5,3.7,7.2H47c0.5,0,0.9,0.4,0.9,0.9s-0.4,0.9-0.9,0.9h-9.6C44,66.3,54.3,71.9,66,71.9  c19.8,0,35.9-16.1,35.9-35.9S85.8,0,66,0"></path>	<path class="st1" d="M20.1,14.1c-0.3,0-0.6,0.4-0.6,0.9s0.3,0.9,0.6,0.9h16.4c0.3-0.6,0.6-1.2,0.9-1.8H20.1z"></path>	<path class="st1" d="M12.3,21.9c-0.5,0-0.9,0.4-0.9,0.9s0.4,0.9,0.9,0.9h19.9c0.2-0.6,0.5-1.2,0.7-1.8H12.3z"></path>	<path class="st1" d="M23.3,31.2c-0.4,0-0.7,0.4-0.7,0.9c0,0.5,0.3,0.9,0.7,0.9h6.9c0-0.6,0.1-1.2,0.1-1.8H23.3z"></path>	<path class="st1" d="M7.6,46.9c-0.5,0-0.9,0.4-0.9,0.9c0,0.5,0.4,0.9,0.9,0.9h24.8c-0.2-0.6-0.4-1.2-0.6-1.8H7.6z"></path>	<path class="st1" d="M28.7,55.9c-0.5,0-0.9,0.4-0.9,0.9c0,0.5,0.4,0.9,0.9,0.9h8.7c-0.5-0.6-0.9-1.2-1.3-1.8H28.7z"></path>	<path class="st1" d="M15.7,39c-0.5,0-0.9,0.4-0.9,0.9c0,0.5,0.4,0.9,0.9,0.9h14.7c-0.1-0.6-0.2-1.2-0.2-1.8H15.7z"></path></g></svg>