<svg xmlns="http://www.w3.org/2000/svg" width="800px" height="800px" viewBox="0 0 24 24" fill="none" stroke="#000000" transform="matrix(-1, 0, 0, 1, 0, 0)rotate(0)"><g id="SVGRepo_bgCarrier" stroke-width="0"></g><g id="SVGRepo_tracerCarrier" stroke-linecap="round" stroke-linejoin="round"></g><g id="SVGRepo_iconCarrier"><path opacity="0.15" d="M9 11C11.2091 11 13 9.20914 13 7C13 4.79086 11.2091 3 9 3C6.79086 3 5 4.79086 5 7C5 9.20914 6.79086 11 9 11Z" fill="#1a88ff"></path><path d="M19 15C21.2091 15 23 16.7909 23 19V21H21M16 10.874C17.7252 10.4299 19 8.86384 19 7C19 5.13617 17.7252 3.57007 16 3.12602M13 7C13 9.20914 11.2091 11 9 11C6.79086 11 5 9.20914 5 7C5 4.79086 6.79086 3 9 3C11.2091 3 13 4.79086 13 7ZM5 15H13C15.2091 15 17 16.7909 17 19V21H1V19C1 16.7909 2.79086 15 5 15Z" stroke="#1a88ff" stroke-width="1.5" stroke-linecap="round" stroke-linejoin="round"></path></g></svg>