<svg xmlns="http://www.w3.org/2000/svg" fill="#a050e2" width="800px" height="800px" viewBox="0 0 200 200" data-name="Layer 1" id="Layer_1" stroke="#a050e2"><g id="SVGRepo_bgCarrier" stroke-width="0"></g><g id="SVGRepo_tracerCarrier" stroke-linecap="round" stroke-linejoin="round"></g><g id="SVGRepo_iconCarrier"><title></title><path d="M99.52,150a50.15,50.15,0,0,0,50-50V65a50,50,0,0,0-100,0v35A50.15,50.15,0,0,0,99.52,150Zm-30-85a30,30,0,0,1,60,0v35a30,30,0,0,1-60,0Z"></path><path d="M109.52,77.5a10,10,0,0,0,10-10V60a10,10,0,1,0-20,0v7.5A10,10,0,0,0,109.52,77.5Z"></path><path d="M168.52,126c-5-2-11,0-13,5a57,57,0,0,1-52,34H96a57,57,0,0,1-52-34,9.52,9.52,0,0,0-13-5,9.52,9.52,0,0,0-5,13c12,28,40,46,70.5,46H104a77.2,77.2,0,0,0,70.5-46C176,134,173.52,128,168.52,126Z"></path></g></svg>