<svg xmlns:inkscape="http://www.inkscape.org/namespaces/inkscape" xmlns:sodipodi="http://sodipodi.sourceforge.net/DTD/sodipodi-0.dtd" xmlns="http://www.w3.org/2000/svg" xmlns:svg="http://www.w3.org/2000/svg" id="svg2" width="400" height="400" viewBox="0 0 400 400" sodipodi:docname="CF7.ai"><defs id="defs6"><clipPath clipPathUnits="userSpaceOnUse" id="clipPath16"><path d="M 0,300 H 300 V 0 H 0 Z" id="path14"></path></clipPath></defs><g id="g8" inkscape:groupmode="layer" inkscape:label="CF7" transform="matrix(1.3333333,0,0,-1.3333333,0,400)"><g id="g10"><g id="g12" clip-path="url(#clipPath16)"><g id="g18" transform="translate(281.1758,149.8613)"><path d="m 0,0 c 0,16.892 0.272,33.789 -0.078,50.674 -0.338,16.286 -7.623,29.166 -21.65,37.437 -29.073,17.145 -58.307,34.026 -87.684,50.647 -14.054,7.951 -28.788,7.962 -42.852,10e-4 -29.18,-16.515 -58.193,-33.329 -87.123,-50.28 -14.538,-8.519 -22.113,-21.619 -22.229,-38.466 -0.226,-33.222 -0.203,-66.448 -0.01,-99.671 0.099,-16.995 7.707,-30.17 22.345,-38.755 28.439,-16.681 57.018,-33.124 85.639,-49.49 15.095,-8.631 30.493,-8.638 45.591,-0.002 28.619,16.369 57.196,32.818 85.642,49.486 14.527,8.512 22.068,21.571 22.349,38.416 C 0.219,-33.339 0.002,-16.668 0,0 M 0.686,-145.179 H -263.037 V 145.455 H 0.686 Z" style="fill:#ffffff;fill-opacity:1;fill-rule:nonzero;stroke:none" id="path20"></path></g><g id="g22" transform="translate(243.875,207.4736)"><path d="M 0,0 C -1.245,0.07 -2.233,0.174 -3.221,0.174 -42.589,0.17 -81.958,0.365 -121.324,0.057 c -19.483,-0.153 -34.786,-8.823 -45.535,-25.17 -5.706,-8.678 -9.228,-18.341 -12.011,-28.271 -5.151,-18.383 -7.437,-37.205 -8.48,-56.219 -0.281,-5.124 -0.332,-5.233 4.898,-5.233 58.94,-0.002 117.88,-0.002 176.819,-0.001 0.671,0 1.345,0.046 2.013,0.002 2.117,-0.14 2.94,0.727 2.933,2.939 -0.065,19.242 -0.067,38.483 0.002,57.723 0.008,2.311 -0.736,3.17 -3.074,3.149 -9.281,-0.084 -18.565,-0.097 -27.846,0.008 -2.49,0.028 -3.297,-0.815 -3.25,-3.307 0.137,-7.38 -0.111,-14.77 0.12,-22.146 0.102,-3.271 -0.956,-4.093 -4.147,-4.083 -36.013,0.108 -72.025,0.069 -108.038,0.069 h -3.67 c -0.1,0.8 -0.245,1.236 -0.194,1.646 1.356,10.852 4.342,21.179 9.563,30.853 5.231,9.692 13.034,14.246 24.224,14.175 37.689,-0.238 75.381,-0.038 113.07,-0.177 3.525,-0.013 4.364,1.1 4.292,4.367 -0.18,8.386 -0.046,16.778 -0.073,25.168 C 0.288,-3.025 0.109,-1.601 0,0 m 37.302,-57.612 c 10e-4,-16.668 0.218,-33.339 -0.061,-50.003 -0.281,-16.845 -7.822,-29.905 -22.349,-38.416 -28.447,-16.668 -57.023,-33.117 -85.642,-49.487 -15.099,-8.635 -30.497,-8.628 -45.591,0.002 -28.621,16.367 -57.2,32.81 -85.639,49.491 -14.639,8.585 -22.247,21.759 -22.345,38.754 -0.193,33.224 -0.217,66.45 0.01,99.672 0.115,16.847 7.69,29.947 22.229,38.466 28.93,16.95 57.943,33.764 87.123,50.28 14.064,7.961 28.798,7.95 42.852,-0.001 C -42.734,64.525 -13.5,47.644 15.573,30.499 29.6,22.228 36.885,9.348 37.223,-6.938 c 0.35,-16.885 0.078,-33.782 0.079,-50.674" style="fill:#f15a2a;fill-opacity:1;fill-rule:nonzero;stroke:none" id="path24"></path></g><g id="g26" transform="translate(243.875,207.4736)"><path d="m 0,0 c 0.109,-1.601 0.288,-3.025 0.292,-4.451 0.027,-8.39 -0.107,-16.782 0.073,-25.168 0.072,-3.267 -0.767,-4.38 -4.292,-4.367 -37.689,0.139 -75.381,-0.061 -113.07,0.177 -11.19,0.071 -18.993,-4.483 -24.224,-14.175 -5.221,-9.674 -8.207,-20.001 -9.563,-30.853 -0.051,-0.41 0.094,-0.846 0.194,-1.646 h 3.67 c 36.013,0 72.025,0.039 108.038,-0.069 3.191,-0.01 4.249,0.812 4.147,4.083 -0.231,7.376 0.017,14.766 -0.12,22.146 -0.047,2.492 0.76,3.335 3.25,3.307 9.281,-0.105 18.565,-0.092 27.846,-0.008 2.338,0.021 3.082,-0.838 3.074,-3.149 -0.069,-19.24 -0.067,-38.481 -0.002,-57.723 0.007,-2.212 -0.816,-3.079 -2.933,-2.939 -0.668,0.044 -1.342,-0.002 -2.013,-0.002 -58.939,-10e-4 -117.879,-10e-4 -176.819,0.001 -5.23,0 -5.179,0.109 -4.898,5.233 1.043,19.014 3.329,37.836 8.48,56.219 2.783,9.93 6.305,19.593 12.011,28.271 10.749,16.347 26.052,25.017 45.535,25.17 C -81.958,0.365 -42.589,0.17 -3.221,0.174 -2.233,0.174 -1.245,0.07 0,0" style="fill:#ffffff;fill-opacity:1;fill-rule:nonzero;stroke:none" id="path28"></path></g></g></g></g></svg>