<svg xmlns:inkscape="http://www.inkscape.org/namespaces/inkscape" xmlns:sodipodi="http://sodipodi.sourceforge.net/DTD/sodipodi-0.dtd" xmlns="http://www.w3.org/2000/svg" xmlns:svg="http://www.w3.org/2000/svg" id="svg2" width="400" height="400" viewBox="0 0 400 400" sodipodi:docname="CF7.ai"><defs id="defs6"><clipPath clipPathUnits="userSpaceOnUse" id="clipPath16"><path d="M 0,300 H 300 V 0 H 0 Z" id="path14"></path></clipPath></defs><g id="g8" inkscape:groupmode="layer" inkscape:label="CF7" transform="matrix(1.3333333,0,0,-1.3333333,0,400)"><g id="g10"><g id="g12" clip-path="url(#clipPath16)"><g id="g18" transform="translate(177.2129,161.832)"><path d="m 0,0 c 2.471,0 4.542,-0.025 6.612,0.004 7.7,0.108 8.222,0.532 8.038,-8.004 -0.184,-8.616 0.686,-17.408 -0.738,-25.813 -2.97,-17.529 -13.376,-29.22 -30.781,-34.111 -1.762,-0.495 -2.378,-1.267 -2.36,-3.036 0.069,-6.537 -0.04,-13.076 0.049,-19.613 0.054,-3.996 0.799,-8.039 3.881,-10.743 4.557,-3.997 9.44,-7.65 14.386,-11.164 2.469,-1.755 5.559,-2.27 8.499,-1.166 3.977,1.493 7.925,3.12 11.725,5.011 2.983,1.487 4.895,4.084 4.544,7.589 -0.385,3.87 -0.842,7.784 -1.829,11.531 -1.653,6.283 -0.611,11.229 4.819,15.437 3.6,2.79 6.515,6.51 9.539,9.985 2.708,3.114 6.017,3.978 9.858,3.254 3.827,-0.721 7.617,-1.635 11.435,-2.415 5.089,-1.041 8.911,0.884 11.01,5.67 1.463,3.339 2.846,6.722 4.073,10.153 1.849,5.174 0.542,8.86 -3.983,11.93 -3.528,2.396 -7.088,4.749 -10.549,7.238 -3.287,2.363 -4.106,5.711 -3.9,9.646 0.254,4.847 0.371,9.739 0.014,14.572 -0.339,4.578 0.714,8.21 4.626,10.839 3.611,2.427 7.212,4.875 10.746,7.413 2.843,2.041 4.548,5.103 3.605,8.361 -1.462,5.054 -3.555,9.971 -5.836,14.727 -1.508,3.146 -4.674,4.523 -8.106,4.099 -3.682,-0.456 -7.323,-1.352 -10.93,-2.267 -5.592,-1.417 -10.022,-0.424 -13.773,4.498 -2.924,3.837 -6.767,6.991 -10.309,10.334 -2.51,2.37 -3.99,5.186 -3.496,8.58 0.674,4.624 1.743,9.19 2.654,13.779 0.898,4.522 -0.847,8.31 -5.05,10.328 -3.364,1.614 -6.806,3.092 -10.299,4.4 -5.178,1.938 -8.811,0.645 -11.87,-3.994 -2.253,-3.415 -4.457,-6.862 -6.705,-10.281 -1.965,-2.989 -4.666,-4.475 -8.335,-4.381 -5.034,0.13 -10.11,0.439 -15.099,-0.043 -6.024,-0.583 -9.982,1.657 -12.792,6.853 -1.651,3.05 -3.736,5.876 -5.738,8.724 -2.446,3.481 -5.772,4.713 -9.784,3.358 -3.61,-1.219 -7.15,-2.689 -10.61,-4.288 -5.537,-2.56 -7.197,-6.073 -5.983,-12.064 0.758,-3.735 1.627,-7.451 2.277,-11.204 0.623,-3.594 0.021,-6.861 -2.766,-9.595 -4.222,-4.14 -8.324,-8.403 -12.423,-12.666 -2.528,-2.629 -5.405,-3.872 -9.106,-3.044 -3.971,0.89 -7.986,1.583 -11.973,2.403 -4.99,1.026 -8.757,-0.756 -10.871,-5.43 -1.575,-3.479 -3.03,-7.022 -4.329,-10.613 -1.713,-4.733 -0.446,-8.429 3.728,-11.361 3.42,-2.401 6.923,-4.684 10.335,-7.095 3.59,-2.536 4.837,-5.92 4.428,-10.394 -0.433,-4.738 -0.353,-9.574 0.048,-14.321 0.379,-4.493 -0.66,-8.077 -4.413,-10.687 -3.431,-2.386 -6.907,-4.706 -10.335,-7.098 -3.959,-2.763 -5.361,-6.4 -3.805,-10.872 1.396,-4.013 3.041,-7.957 4.849,-11.804 1.811,-3.849 5.615,-5.653 9.76,-4.877 4.256,0.797 8.525,1.584 12.718,2.651 3.443,0.875 6.23,-0.19 8.555,-2.464 4.601,-4.5 9.062,-9.145 13.519,-13.789 2.088,-2.177 3.15,-4.857 2.626,-7.874 -0.785,-4.523 -1.775,-9.008 -2.687,-13.508 -0.862,-4.253 0.771,-8.111 4.645,-10.066 3.403,-1.718 6.959,-3.143 10.486,-4.604 2.775,-1.148 5.623,-1.134 8.349,0.156 6.233,2.953 11.448,7.331 15.92,12.456 1.595,1.829 2.687,4.628 2.858,7.065 0.482,6.851 0.46,13.743 0.455,20.619 -0.004,5.926 0.849,4.258 -4.57,6.392 -14.884,5.86 -24.352,16.667 -26.459,32.484 -1.359,10.198 -0.586,20.682 -0.722,31.039 -0.028,2.105 1.13,3.18 3.274,3.167 2.702,-0.017 5.418,0.168 8.103,-0.05 2.61,-0.211 3.268,0.822 3.219,3.275 -0.134,6.797 -0.111,13.599 0.012,20.396 0.025,1.388 0.424,3.018 1.24,4.088 1.396,1.83 3.435,2.597 5.812,1.65 2.476,-0.986 3.66,-2.833 3.665,-5.446 0.014,-7.061 0.043,-14.122 -0.03,-21.182 -0.02,-1.881 0.33,-2.812 2.554,-2.782 8.803,0.123 17.608,0.047 26.412,0.063 0.669,10e-4 1.338,0.142 2.28,0.249 v 2.941 c 0.003,6.451 -0.08,12.904 0.067,19.351 0.037,1.662 0.437,3.531 1.301,4.909 1.222,1.949 3.267,2.771 5.689,1.997 2.552,-0.816 4.019,-2.752 4.033,-5.719 C 0.026,15.986 0,8.235 0,0 m 113.721,-18.892 c -1.186,-6.715 -2.021,-13.42 -3.196,-20.064 -2.212,-12.518 -6.404,-24.388 -12.088,-35.755 -5.103,-10.202 -11.252,-19.731 -18.645,-28.385 -10.59,-12.398 -22.979,-22.691 -37.14,-30.868 -9.702,-5.602 -19.904,-10.08 -30.631,-13.097 -7.452,-2.095 -15.207,-3.14 -22.849,-4.519 -12.743,-2.298 -25.515,-1.482 -38.192,0.366 -10.829,1.579 -21.306,4.667 -31.482,8.795 -16.966,6.882 -31.951,16.739 -45.074,29.46 -9.425,9.138 -17.504,19.354 -24.006,30.763 -8.543,14.988 -14.409,30.944 -16.963,48.063 -0.458,3.067 -1.107,6.105 -1.668,9.155 V 1.174 c 0.597,3.659 1.125,7.331 1.804,10.974 3.341,17.929 9.554,34.76 19.263,50.253 12.677,20.228 29.305,36.365 50.065,48.156 19.487,11.068 40.401,17.335 62.861,18.22 0.845,0.034 1.679,0.354 2.518,0.541 h 8.369 c 0.492,-0.157 0.974,-0.391 1.479,-0.46 8.241,-1.117 16.59,-1.721 24.698,-3.457 7.619,-1.63 15.122,-4.082 22.427,-6.834 10.532,-3.968 20.291,-9.533 29.415,-16.15 11.288,-8.188 21.185,-17.819 29.677,-28.881 7.644,-9.955 14.061,-20.679 18.447,-32.422 3.043,-8.151 5.495,-16.574 7.502,-25.044 1.629,-6.876 2.203,-14.002 3.185,-20.616 0.086,1.621 0.289,3.683 0.29,5.746" style="fill:#005adf;fill-opacity:1;fill-rule:nonzero;stroke:none" id="path20"></path></g></g></g></g></svg>