<svg xmlns:inkscape="http://www.inkscape.org/namespaces/inkscape" xmlns:sodipodi="http://sodipodi.sourceforge.net/DTD/sodipodi-0.dtd" xmlns="http://www.w3.org/2000/svg" xmlns:svg="http://www.w3.org/2000/svg" id="svg2" width="400" height="400" viewBox="0 0 400 400" sodipodi:docname="CF7.ai"><defs id="defs6"><clipPath clipPathUnits="userSpaceOnUse" id="clipPath16"><path d="M 7.801,150.498 C 7.801,71.798 71.6,8 150.299,8 v 0 c 78.699,0 142.498,63.798 142.498,142.498 v 0 c 0,78.7 -63.799,142.499 -142.498,142.499 v 0 C 71.6,292.997 7.801,229.198 7.801,150.498" id="path14"></path></clipPath><clipPath clipPathUnits="userSpaceOnUse" id="clipPath40"><path d="M 0,300 H 300 V 0 H 0 Z" id="path38"></path></clipPath></defs><g id="g8" inkscape:groupmode="layer" inkscape:label="CF7" transform="matrix(1.3333333,0,0,-1.3333333,0,400)"><g id="g10"><g id="g12" clip-path="url(#clipPath16)"><g id="g18" transform="translate(150.2988,292.9966)"><path d="m 0,0 c 78.699,0 142.498,-63.799 142.498,-142.499 0,-78.699 -63.799,-142.498 -142.498,-142.498 -78.7,0 -142.498,63.799 -142.498,142.498 C -142.498,-63.799 -78.7,0 0,0" style="fill:#33c6f4;fill-opacity:1;fill-rule:nonzero;stroke:none" id="path20"></path></g><g id="g22" transform="translate(297.0176,91.5361)"><path d="m 0,0 c -65.526,29.444 -132.953,112.208 -138.634,115.998 -5.68,3.791 -13.299,-0.944 -13.299,-0.944 -4.748,7.594 -12.342,-0.945 -12.342,-0.945 -35.149,-59.834 -129.162,-116.956 -129.162,-116.956 0,0 45.147,-83.033 149.503,-83.033 C -37.836,-85.88 0,0 0,0" style="fill:#1b447e;fill-opacity:1;fill-rule:nonzero;stroke:none" id="path24"></path></g><g id="g26" transform="translate(86.1963,154.3628)"><path d="M 0,0 C 0,0 18.991,8.588 15.188,-5.705 11.385,-19.998 -3.803,-40.841 0.944,-41.787 c 4.748,-0.944 18.097,12.343 21.85,10.454 3.755,-1.89 6.65,-0.958 4.748,-7.607 -1.901,-6.649 -3.803,-11.397 0,-11.397 3.804,0 6.65,8.587 11.398,17.102 4.748,8.514 12.342,4.747 15.188,1.902 2.847,-2.847 11.397,-19.004 18.047,-17.103 6.65,1.901 10.44,10.453 7.595,29.444 C 76.923,0 81.671,5.693 81.671,5.693 c 0,0 5.692,2.846 16.145,-10.441 10.454,-13.287 29.445,-33.235 32.279,-32.291 2.834,0.945 -13.287,21.838 -9.496,23.74 3.791,1.902 18.992,-2.846 26.598,-9.495 0,0 2.601,-10.883 2.601,-0.443 L 72.175,53.171 58.876,52.239 46.534,51.294 C 46.534,51.294 16.145,5.693 0,0" style="fill:#ffffff;fill-opacity:1;fill-rule:nonzero;stroke:none" id="path28"></path></g><g id="g30" transform="translate(297.0176,88.6895)"><path d="m 0,0 c -65.526,29.444 -132.953,115.054 -138.634,118.845 -5.68,3.791 -13.299,-0.945 -13.299,-0.945 -4.748,7.595 -12.342,-0.944 -12.342,-0.944 C -199.424,57.122 -293.437,0 -293.437,0" style="fill:none;stroke:#221e1f;stroke-width:7.16;stroke-linecap:butt;stroke-linejoin:miter;stroke-miterlimit:10;stroke-dasharray:none;stroke-opacity:1" id="path32"></path></g></g></g><g id="g34"><g id="g36" clip-path="url(#clipPath40)"><g id="g42" transform="translate(150.2988,292.9966)"><path d="m 0,0 c 78.699,0 142.498,-63.799 142.498,-142.499 0,-78.699 -63.799,-142.498 -142.498,-142.498 -78.7,0 -142.498,63.799 -142.498,142.498 C -142.498,-63.799 -78.7,0 0,0 Z" style="fill:none;stroke:#221e1f;stroke-width:7.16;stroke-linecap:butt;stroke-linejoin:miter;stroke-miterlimit:10;stroke-dasharray:none;stroke-opacity:1" id="path44"></path></g></g></g></g></svg>