<svg xmlns="http://www.w3.org/2000/svg" id="Layer_1" viewBox="0 0 470 350"><style>    .st1{fill:#fff}.st2{fill:#d5daea}.st3{fill:#0c1238}.st5{fill:#ffc04d}  </style><path d="M322 120h68v69h-68v-69zm69 70l-17.1.2-17.2.2-17.3.1h-18.7v-1.4l.2-34.5v-17.2l-.1-17.2v-1.3h1.3l17-.1h17l34 .1h1.2v36.2c0 5.9-.1 11.7-.1 17.5L391 190zm-2-2l-.2-17.1c-.1-5.7-.2-11.4-.2-17l-.1-16.9v-17l1.4 1.4h-34c-11.3 0-22.7-.1-34-.1l1.3-1.3c0 11.5-.2 23-.1 34.5l.1 34.5-1.2-1.2c5.6 0 11.2 0 16.8.1l16.8.1c5.6.1 11.2 0 16.8.1l16.6-.1z" fill="#e6e8f0"></path><path class="st1" d="M361 172.7h41V225h-41v-52.3z"></path><path class="st2" d="M358.3 135.2c1.8 1.1 2.9 2.8 3.7 4.3.6 1.7 1.8 3.1 2.5 4.8 1.3 3.4 1.5 7.4.2 11-.3.9-.8 1.8-1.3 2.6-.3.4-.6.7-.9 1.1-.4.3-.7.7-1.1 1-1.5 1.2-3.3 2-5.2 2.2-.9.1-1.9.2-2.8.1-.9 0-1.8-.3-2.7-.5-.9-.3-1.7-.6-2.5-1l-2.4-1.2c-1.5-.9-2.9-2.1-4.1-3.4-1.1-1.4-2.5-2.6-3.3-4.3-.9-1.6-1.4-3.5-1.4-5.4 0-1 .1-1.9.3-2.9.2-1 .6-1.9 1.1-2.7 1-1.6 2.6-2.8 4-3.9 1.5-1.1 3.1-2 4.9-2.5.9-.2 1.8-.3 2.7-.5.9-.1 1.8-.2 2.8-.2 1.8.1 3.8.5 5.5 1.4zm-1.2 2c-1.3-.7-2.8-1.1-4.4-1.1-.8 0-1.6.1-2.3.2-.8.1-1.5.5-2.2.8-1.5.5-3 1.1-4.3 2-.7.4-1.3.9-1.8 1.4-.6.5-1.1 1.1-1.5 1.8-.5.6-.8 1.3-1.1 2-.1.3-.2.7-.2 1.1v1.1c.1 1.5.6 3 1.3 4.4.4.7.8 1.3 1.1 2.1.2.8.9 1.4 1.4 1.9 1.2 1.1 2.6 1.9 4 2.8.6.5 1.3 1 2 1.3.7.3 1.5.6 2.2.8.8.2 1.5.3 2.3.4.8.1 1.5.1 2.3-.1.7-.3 1.4-.6 2-.8.7-.3 1.4-.6 2-1 .3-.2.6-.5.9-.7l.7-.9c.5-.6.9-1.2 1.3-2 .7-1.4.8-3.1.6-4.8-.2-1.6-.7-3.2-1.2-4.8-.5-1.6-.9-3.2-2-4.6-.9-1.3-1.9-2.6-3.1-3.3z"></path><path class="st1" d="M334.1 165.2c1.8-.8 3.6-1.8 5.3-2.9 1.8-.9 3.1-2.6 4.4-4 2.7-2.9 5.2-6.1 7-9.7.8-1.8 1.6-3.7 2.2-5.6l.4-1.4.3-1.5c.2-1 .4-2 .5-3 .2-2 .2-4.1-.4-5.8-.3-.9-.8-1.6-1.6-1.9-.8-.3-1.7-.1-2.4.4s-1.4 1.1-1.8 2c-.4.8-.6 1.8-.6 2.8-.1 1 0 2 .2 3s.3 2 .5 3c.4 2 .9 3.9 1.7 5.7s2 3.3 3.5 4.5c.7.6 1.5 1.2 2.3 1.6.8.5 1.8.9 2.7 1.2 1.9.6 3.9 1.1 5.9 1.6 1 .3 2 .6 3 .7 1 .1 2 .3 3 .4 2 .1 4.1.2 6.1.1v2.4c-2.1 0-4.2 0-6.4-.3-1.1-.1-2.1-.2-3.2-.4-1.1-.1-2.1-.2-3.2-.4s-2.1-.5-3.1-.8c-1-.3-2-.6-3-1-2-.8-4.1-1.7-5.8-3.2-3.3-3.3-5.1-7.5-5.8-11.8-.2-1.1-.4-2.1-.2-3.2 0-.5.1-1.1.1-1.6s-.1-1.1 0-1.6c0-1.1.1-2.3.5-3.5.2-.6.5-1.2 1-1.7.4-.5.9-1 1.5-1.3 1.2-.7 2.8-.8 4.2-.3 1.4.5 2.4 1.8 2.9 2.9.5 1.2.6 2.4.6 3.5s-.1 2.2-.1 3.3c.1 2.2-.4 4.4-1.2 6.4l-.5 1.5c-.2.5-.3 1-.5 1.5-.4 1-1 1.9-1.5 2.9-1.1 1.8-2.1 3.7-3.3 5.5-1.1 1.8-2.5 3.5-3.9 5.1-1.6 1.5-3.4 2.6-5 4-1.7 1.3-3.6 2.3-5.5 3.3l-.8-2.4z"></path><path class="st2" d="M370.2 199.2l-.1.2V199.1l-.2-.3-.1-.1h.1c.2 0 .4-.1.5-.1.4-.1.8-.3 1.2-.4s.9-.3 1.3-.6c.8-.5 1.4-1.3 2.1-1.9.3-.3.7-.6 1-1 .3-.3.6-.7 1-1 1.2-1.4 2.3-3 3-4.7.7-1.8 1.2-3.6 1.4-5.5l1.1 1.1c-.8 0-1.7.2-2.4.6-.8.4-1.3 1.2-1.8 2-.9 1.6-1.5 3.6-1.2 5.5.2 1.9.8 3.8 2.2 5.1.4.3.8.5 1.2.7l1.2.6c.9.3 1.7.4 2.5.3.8-.1 1.6-.5 2.2-1 .6-.6 1.1-1.3 1.4-2 .3-.7.4-1.5.2-1.8 0-.1-.1-.1-.2-.2H387.5s-.2.1-.3.3c-.1.2-.1.5-.1.8.1.2.2.4.4.6.4.4 1.3.7 2.2.5.5-.1.9-.2 1.4-.3.5-.1 1-.3 1.5-.4 1-.3 2.3-.5 3.6-.1l-.7 2.2c-.7-.2-1.5-.1-2.4.1l-1.5.4c-.5.1-1.1.3-1.7.3l-.9.1h-1c-.3 0-.7-.1-1-.2-.4-.1-.7-.3-1.1-.5-.7-.5-1.2-1.3-1.4-2.1-.2-.9 0-1.7.3-2.5.2-.4.5-.8.9-1.1.4-.3.9-.5 1.5-.6.3 0 .6 0 .8.1.2.1.4.1.6.2.4.2.8.4 1.1.8.6.7.8 1.6.7 2.3 0 .7-.2 1.4-.5 1.9-.6 1.1-1.4 2-2.4 2.8s-2.1 1.3-3.3 1.5c-1.2.2-2.5.1-3.6-.4-.6-.2-1.1-.4-1.6-.8s-.8-.9-1.2-1.3c-1.6-1.6-3-3.7-3.2-6.1 0-.6.1-1.2.1-1.7.1-.6.1-1.1.2-1.7.2-1.1.6-2.3 1.2-3.3s1.5-1.9 2.5-2.7c.5-.4 1-.8 1.7-1 .6-.2 1.3-.3 1.9-.2l1.7.1-.2 1.3c-.2 1.1-.5 2.1-.6 3.2-.2 1.1-.7 2-1.2 3-1 1.9-1.9 3.8-3.2 5.5-.6.9-1.3 1.7-2.1 2.4s-1.8 1.2-2.7 1.7c-.5.3-.9.6-1.4.9-.5.3-1 .5-1.6.7-.3.1-.6.2-.9.2-.4 0-.7.1-1.3-.1-.2-.1-.7-.4-.9-.9-.2-.5-.1-.8-.1-1.1.1-.2.2-.4.2-.6l.3-.4 2 1z"></path><path class="st1" d="M337.5 288.9l-124.1 3.8c.1-1.6.2-3 .2-4.1.6-17.2 4-35.3 16.8-47.7 8.4-8.2 19.7-12.7 29.8-18.8 10.1-6.1 19.7-15.2 21-26.9 1.7-15.7-12-28.7-16-44-4.7-17.9 4.6-37.1 18.7-49.1 2.2-1.9 4.6-3.7 7-5.3l46.2.9.4 191.2z"></path><path class="st3" d="M338.6 193.7l-.1-48.2.1-24v-12l-.1-12c0-.8-.7-1.5-1.5-1.5l-18.5-.3c.1-.2.1-.4.1-.6l-.2-14.6c0-.8-.6-1.4-1.4-1.4-6.2-.1-12.3.4-18.5.2-6.2-.1-12.3-.2-18.5-.1-12.3.2-24.7.5-37 .3l-9.2-.2c-3.1-.1-6.2-.2-9.2-.2H220c-1.5 0-3.1-.1-4.6-.1-3.1-.1-6.2-.2-9.2-.3-6.2-.3-12.3.2-18.5.2-3.1 0-6.2-.1-9.2-.1h-9.2c-1 0-1.8.8-1.8 1.8l.1 12.2c0 4.1-.2 8.2-.2 12.2 0 8.2.4 16.3.5 24.5-.6 16.3-.1 32.7 0 49 .1 4.1 0 8.2-.1 12.2-.1 4.1-.2 8.2-.2 12.2 0 8.2-.1 16.3-.2 24.5s-.2 16.3 0 24.5l.1 6.1v18.4c0 .9.8 1.6 1.7 1.6l8.4-.3c.1-.1.2-.2.3-.4 1.2-1.1 2.5-2.1 4-2.9l-11.5.5-.1-10.8V258c0-2 .1-4.1.1-6.1l.1-6.1.1-3.1v-3.1l-.1-12.2c0-4.1-.1-8.2 0-12.2l.2-12.2c.1-8.2-.1-16.3-.1-24.5l-.2-24.5c0-4.1 0-8.2-.2-12.2-.1-4.1-.3-8.2-.2-12.2l.1-24.5c0-4.1-.1-8.2-.1-12.2l.1-11.2 8.3.1h9.2c6.2 0 12.3.2 18.5.3l18.5.2c6.2.1 12.3.1 18.5.1l18.5.2 9.2.1h9.2c6.2.1 12.3-.2 18.5-.4 5.6-.3 11.3.1 16.9 0v13c0 .2 0 .3.1.5l-54-.8c-12.6-.2-25.2 0-37.8-.4L186 93.5c-.5 0-1 .4-1 1 0 8.3.1 16.6.1 24.9l-.2 24.9c0 8.3-.1 16.6 0 24.9v12.4l-.1 12.4-.4 49.8-.1 29.7c.2-.1.5-.2.7-.3l2.1-.9v-3.6c.1-8.3.4-16.6.3-24.9-.1-16.6.7-33.2.4-49.8-.4-16.6 0-33.2 0-49.8l-.1-24.9.2-22.9 35.7.3c6.3 0 12.6 0 18.9.3 6.3.3 12.6.7 18.9.7l37.7.5c12.1.2 24.2.3 36.3.6-.2 15.4-.1 30.7-.1 46.1v47.4c.1 7.9.2 15.9.4 23.8.1 4 .1 8 .2 11.9l.1 11.9.4 47.7-37.5 1.1-18.7.7-18.9.4-9.4.2c-3.1.1-6.2.2-9.4.3l-18.8.7-10 .4c.1 1 0 2-.3 3l10.5-.3 19.1-.6 9.6-.3 9.5-.5 19-.9c6.3-.2 12.8-.4 19.2-.6l38.2-1.4-.2-48.2v-24c.2-7.9.3-15.9.3-23.9z"></path><path class="st2" d="M204.5 211.8c8.9-.4 17.9-.6 26.8-.7h13.4c4.5 0 8.9-.1 13.4-.1 8.9-.1 17.9-.1 26.8 0 4.5 0 8.9-.1 13.4-.2s8.9-.1 13.3-.4c.5 0 .9.4 1 .8 0 .5-.4.9-.8.9-9 .6-17.9.6-26.8.6-8.9 0-17.9.1-26.8 0-8.9-.1-17.8 0-26.8.2l-13.4.2c-4.5.1-8.9.3-13.4.6-.5 0-.9-.3-1-.8s.3-1 .9-1.1zm0-36c8.9-.4 17.9-.6 26.8-.7h13.4c4.5 0 8.9-.1 13.4-.1 8.9-.1 17.9-.1 26.8 0 4.5 0 8.9-.1 13.4-.2s8.9-.1 13.3-.4c.5 0 .9.4 1 .8 0 .5-.4.9-.8.9-9 .6-17.9.6-26.8.6-8.9 0-17.9.1-26.8 0-8.9-.1-17.8 0-26.8.2l-13.4.2c-4.5.1-8.9.3-13.4.6-.5 0-.9-.3-1-.8s.3-1 .9-1.1z"></path><path class="st3" d="M219.6 201.7c2.6-.1 5.2-.1 7.8-.2 2.6-.1 5.2.1 7.8.2 5.2.2 10.4.3 15.6.3 1.2 0 44.2.1 45 .1.8 0 1.6.2 2.4.1.8 0 1.6-.2 2.4-.2.8 0 1.6 0 2.4.1.8.1 1.6.2 2.4.2.8 0 1.6 0 2.4-.1.4 0 .8 0 1.2.1h1.2c.4 0 .8-.1 1.2-.1.4 0 .8-.1 1.2-.2v-3.6c-.8-.1-1.6 0-2.4 0-.8.1-1.6.3-2.4.2-.8 0-1.6-.1-2.4-.2-.8 0-1.6.1-2.4.2-.8.1-1.6.2-2.4.2-.8 0-1.6-.2-2.4-.3-1.6-.1-3.2 0-4.8.2l-26.8-.4c-1.3-.1-2.6-.1-3.9-.1h-3.9l-3.9.1H251c-5.2-.2-10.4-.4-15.7-.2-2.6.1-5.2.2-7.8.1-2.6 0-5.2-.2-7.8-.2-2.6-.1-5.2 0-7.9.1-1.3 0-2.6.1-3.9.2-.7 0-1.3.1-2 .1l-2 .2.4 3.6c2.4-.5 5.1-.7 7.6-.8 2.4.3 5.1.4 7.7.3zM220.5 188.5l8-.1c1.3 0 2.7 0 4 .1l4 .1c5.3.3 10.7.3 16 .2 1.3 0 2.7.1 4 .1 1.3 0 2.7.1 4 .1 1.3 0 2.7 0 4-.1 1.3 0 32.7-.1 34-.1v-.3h.5c2.2.3 4.5.2 6.8.2.6 0 1.1.1 1.7.1.6 0 1.1.1 1.7.1.6 0 1.1 0 1.7-.1.6 0 1.1-.1 1.7-.1v-3.6h-3.4c-1.1.1-2.3.3-3.4.1-1.1-.1-2.2-.2-3.4-.2-1.1-.1-2.2 0-3.4.1h-4.5c-.7-.1-1.5-.2-2.2-.2-2.2-.2-4.5-.1-6.8.1v.2h-25l-4 .1h-4c-5.3-.2-10.7-.4-16-.1-2.7.1-5.3.2-8 .1s-5.3-.2-8-.3c-5.3-.2-10.7-.1-16 .1v3.6c2.7-.2 5.3-.3 8-.3 2.7-.1 5.3.1 8 .1zM220.5 166.4l8-.1c1.3 0 2.7 0 4 .1l4 .1c5.3.3 10.7.3 16 .2 1.3 0 2.7.1 4 .1 1.3 0 2.7.1 4 .1 1.3 0 2.7 0 4-.1 1.3 0 32.7-.1 34-.1v-.3h.5c2.2.3 4.5.2 6.8.2.6 0 1.1.1 1.7.1.6 0 1.1.1 1.7.1.6 0 1.1 0 1.7-.1.6 0 1.1-.1 1.7-.1V163h-3.4c-1.1.1-2.3.3-3.4.1-1.1-.1-2.2-.2-3.4-.2-1.1-.1-2.2 0-3.4.1h-4.5c-.7-.1-1.5-.2-2.2-.2-2.2-.2-4.5-.1-6.8.1v.2h-25l-4 .1h-4c-5.3-.2-10.7-.4-16-.1-2.7.1-5.3.2-8 .1s-5.3-.2-8-.3c-5.3-.2-10.7-.1-16 .1v3.6c2.7-.2 5.3-.3 8-.3s5.3.2 8 .1zM220.5 152.5l8-.1c1.3 0 2.7 0 4 .1l4 .1c5.3.3 10.7.3 16 .2 1.3 0 2.7.1 4 .1 1.3 0 2.7.1 4 .1 1.3 0 2.7 0 4-.1 1.3 0 32.7-.1 34-.1v-.3h.5c2.2.3 4.5.2 6.8.2.6 0 1.1.1 1.7.1.6 0 1.1.1 1.7.1.6 0 1.1 0 1.7-.1.6 0 1.1-.1 1.7-.1v-3.6h-3.4c-1.1.1-2.3.3-3.4.1-1.1-.1-2.2-.2-3.4-.2-1.1-.1-2.2 0-3.4.1h-4.5c-.7-.1-1.5-.2-2.2-.2-2.2-.2-4.5-.1-6.8.1v.2h-25l-4 .1h-4c-5.3-.2-10.7-.4-16-.1-2.7.1-5.3.2-8 .1s-5.3-.2-8-.3c-5.3-.2-10.7-.1-16 .1v3.6c2.7-.2 5.3-.3 8-.3 2.7-.1 5.3.1 8 .1zM260.7 221.4c-1.2 0-2.5 0-3.7.1l-3.7.2c-1.2 0-2.5.1-3.7.1-5 0-10 0-14.9.4-2.5.2-5 .4-7.5.4-2.5.1-5 0-7.5 0-5 .1-9.9.4-15 1.1l.4 3.6c2.4-.5 4.8-.7 7.3-.9 2.5-.1 5-.1 7.4-.2 2.5-.2 4.9-.3 7.4-.4 2.5-.2 5-.1 7.4-.1 5 0 9.9-.1 14.9-.3 1.2-.1 2.5 0 3.7 0 1.2 0 2.5 0 3.7-.1 1.2 0 2.5-.1 3.7-.1s2.5-.1 3.7-.2v-3.6h-3.6zM305.3 225.3c.8 0 1.6 0 2.4-.1.4 0 .8 0 1.2.1h1.2c.4 0 .8-.1 1.2-.1.4 0 .8-.1 1.2-.2v-3.6c-.8-.1-1.6 0-2.4 0-.8.1-1.6.3-2.4.2-.8 0-1.6-.1-2.4-.2-.8 0-1.6.1-2.4.2-.8.1-1.6.2-2.4.2-.8 0-1.6-.2-2.4-.3-1.6-.1-3.2 0-4.8.2l.1 3.6c.8-.3 1.6-.4 2.4-.4.8 0 1.6.2 2.4.1.8 0 1.6-.2 2.4-.2.8 0 1.6 0 2.4.1.7.3 1.5.4 2.3.4zM311.3 232.5c-.4.1-.8.3-1.3.2-.8-.1-1.7-.3-2.5 0-.4.1-.8.2-1.3.2-.4 0-.9-.2-1.3-.3-.4-.1-.8-.1-1.3 0-.4 0-.8.1-1.3.2l.2 3.6c.4-.3.8-.4 1.2-.4.4 0 .8.2 1.2.1.4 0 .8-.2 1.2-.2.4 0 .8 0 1.2.1.4.1.8.2 1.2.2.4 0 .8-.1 1.2-.1.2 0 .4.1.6.1h.6c.4 0 .8-.1 1.2-.3l.1-3.6c-.1 0-.5.1-.9.2z"></path><path class="st2" d="M104.8 258.8v-4.3c0-.7.1-1.4.1-2.1 0-.7-.1-1.4-.2-2.1-.4-2.8-.2-5.7-.2-8.5.1-2.8.1-5.7.2-8.5l.2-4.2c.1-1.4.2-2.8.2-4.2v-.8h.8c2.2-.1 4.3.1 6.5.1 1.1 0 2.2-.1 3.2-.1l3.2.1c1.1 0 2.2.1 3.2-.1 1.1-.2 2.2-.2 3.2-.2l6.5-.2h1.1l.1 1.1c.1 1 .1 2.1.1 3.1s-.1 2.1-.1 3.1l-.1 1.6v1.6l.1 3.1c0 1 0 2.1-.1 3.1s-.1 2.1-.1 3.1l.2 6.2h-2.4l-.1-6.2c0-1 0-2.1-.1-3.1s-.2-2.1-.1-3.1c0-2.1.2-4.2.2-6.2 0-1 0-2.1.1-3.1s.2-2.1.2-3.1l1 1c-2.2 0-4.3.2-6.5.3-1.1 0-2.2.1-3.2-.1-.5-.1-1.1-.2-1.6-.1-.5 0-1.1 0-1.6.1-2.2.2-4.3.5-6.5.2-1.1 0-2.2 0-3.2.1-1.1 0-2.2 0-3.2-.1l1.3-1.3c-.1.7-.1 1.4 0 2.1.1.7.2 1.4.2 2.1 0 1.4-.3 2.8-.4 4.2.1 1.4-.1 2.8-.2 4.2-.2 1.4-.2 2.8-.1 4.2l.2 4.2c0 .7.1 1.4.1 2.1 0 .7-.1 1.4-.1 2.1-.1.7-.1 1.4-.1 2.1.1.7.2 1.4.2 2.1 0 1.4.1 2.8.1 4.3l-2.3.1zm33-20v-6.2c0-1 0-2.1.1-3.1s0-2.1-.1-3.1c-.4-4.2-.3-8.3-.3-12.5.1-4.2.1-8.3.2-12.5.1-4.2.2-8.3.4-12.5v-.8h.8c1.8.1 3.5 0 5.2 0 1.8 0 3.5.1 5.2.1h5.2c1.8-.1 3.5 0 5.3 0h.7v4.5c0 1.3 0 2.5.1 3.8.1 1.3.1 2.5.1 3.8l.1 3.8.1 7.6c.1 2.5.1 5.1 0 7.6-.3 5.1.1 10.2-.1 15.2-.2 2.5-.1 5.1 0 7.6l.2 7.6h-2.4l-.1-7.6c0-2.5 0-5.1-.2-7.6-.2-5.1.2-10.2.1-15.2 0-2.5.2-5.1.2-7.6s-.1-5.1-.2-7.6c0-1.3-.1-2.5-.1-3.8 0-1.3-.1-2.5.1-3.8.1-.6.2-1.3.2-1.9v-1.9c0-1.3-.1-2.5-.2-3.8l1.3 1.3c-.9.1-1.8.1-2.6.1-.9 0-1.8.1-2.6.1-.9 0-1.8-.1-2.6-.2-.9-.1-1.8 0-2.6 0-1.8 0-3.5.1-5.2 0-1.8 0-3.5-.1-5.2-.1l1.3-1.3c0 1 .2 2.1.2 3.1s0 2.1-.1 3.1c-.2 2.1-.4 4.2-.3 6.2-.1 2.1-.3 4.2-.4 6.2-.1 2.1 0 4.2 0 6.2.1 4.2.4 8.3.1 12.5 0 1-.1 2.1 0 3.1s.1 2.1.1 3.1l.1 6.2-2.1.3z"></path><g><path class="st2" d="M157.9 265.9c.6 0 1.1-.5 1.1-1.2v-2.9c0-.6-.5-1.1-1.1-1.1s-1.1.5-1.1 1.1v2.9c0 .7.5 1.2 1.1 1.2zM159.2 270.5c0-.6-.5-1.1-1.2-1.1s-1.2.5-1.2 1.2v1.5c0 .7.5 1.2 1.2 1.2s1.2-.6 1.2-1.2v-1.6z"></path></g><g><path d="M114.5 165.6l-6.8-13.7c-5.2-11.2-.4-24.6 10.9-29.8s24.6-.4 29.8 10.8l6.8 13.7-40.7 19z" fill="#948cff"></path><path class="st5" d="M211.5 262c-4.9-10.6-30.6-65.6-30.6-65.6-2.5-5.3-5-10.6-7.6-15.8-1.3-2.6-2.6-5.2-3.9-7.9l-3.7-8c-.2-.3-.3-.7-.5-1-14.7 3.5-37.4 17.4-42.2 19.5.2.4.3.8.5 1.2l7.3 16.1 7.4 16.1c4.9 10.7 10.8 23.7 16 34.1l3.9 7.8c1.3 2.6 2.5 5.4 3.7 8.1l7.5 16 20.8-9.6 10.4-4.8 10.4-4.7 1-.4-.4-1.1z"></path><path transform="rotate(-24.994 134.38 155.853)" class="st5" d="M111.9 151.3h44.9v9.1h-44.9z"></path><path class="st5" d="M115.6 170.6l-1.2-2.2c-.4-.7-.8-1.4-1.1-2.2-.2-.4-.3-.8-.5-1.2-.2-.4-.4-.7-.6-1.1-.5-.7-.9-1.4-1.3-2.1l-.6-1.2 1.3-.7c3.3-1.7 6.8-3.1 10.2-4.6 3.4-1.5 6.8-3.1 10.3-4.5 1.7-.7 3.4-1.5 5.2-2.2l2.6-1.1 2.5-1.2c3.4-1.6 6.9-2.9 10.2-4.6l.6-.3.3.7c.7 1.4 1.2 2.8 1.9 4.1l1.5 3.2c.1.3.3.6.5.9l.3.5-.6.4c-.8.5-1.6 1-2.5 1.4l-2.6 1.3-5.1 2.5-5.2 2.5c-1.7.8-3.5 1.5-5.2 2.2-1.7.8-3.5 1.6-5.2 2.4-.9.4-1.7.8-2.6 1.2-.9.4-1.7.7-2.6 1-3.5 1.4-7 3.2-10.5 4.9z"></path><path class="st5" d="M116.4 168.3l5-2.5c1.7-.8 3.3-1.6 5-2.5.8-.4 1.7-.9 2.5-1.4.8-.4 1.6-.8 2.5-1.2 1.6-.8 3.3-1.4 4.9-2.2 1.6-.8 3.3-1.6 5-2.2.8-.3 1.7-.7 2.5-1s1.7-.8 2.5-1.2c1.6-.8 3.3-1.7 4.9-2.6l2.5-1.2c.8-.4 1.7-.6 2.6-.9l-.5 1.4c-.3-.7-.6-1.4-1-2.1-.3-.7-.7-1.3-1.1-2-.4-.7-.8-1.3-1.1-2-.4-.7-.7-1.3-1-2l2 .7c-.9.4-1.8.6-2.6 1-.9.4-1.7.8-2.5 1.2l-5.1 2.4c-.9.4-1.7.7-2.6 1.1-.8.4-1.6.9-2.5 1.4-1.6.9-3.4 1.5-5.2 2.1-1.8.6-3.4 1.6-5.2 2.2-1.8.7-3.5 1.3-5.2 2.1-3.4 1.6-6.7 3.4-10 5l.5-1.4c.3.6.5 1.3.8 2 .1.3.3.7.4 1 .1.3.3.6.5.9.3.6.6 1.2.9 1.9l.6 2z"></path><path d="M187.4 273.3l-40.9-87.9c-.7-1.4-.1-3.1 1.4-3.8l.4-.2c1.4-.7 3.1-.1 3.8 1.4l40.9 87.9-5.6 2.6zm13.3-6.2l-40.9-87.9c-.7-1.4-.1-3.1 1.4-3.8l.4-.2c1.4-.7 3.1-.1 3.8 1.4l40.9 87.9-5.6 2.6zm-26.6 12.4l-40.9-87.9c-.7-1.4-.1-3.1 1.4-3.8l.4-.2c1.4-.7 3.1-.1 3.8 1.4l40.9 87.9-5.6 2.6z" fill="#ffd57d" stroke="#ffd57d" stroke-linecap="round" stroke-linejoin="round" stroke-miterlimit="10"></path><path class="st3" d="M120.4 181.3c3.7-1.9 7.4-3.7 11.3-5.3l5.7-2.4c1-.4 1.9-.9 2.8-1.3l2.8-1.4c3.7-1.9 7.5-3.6 11.3-5.2 1-.4 1.9-.9 2.8-1.3l2.8-1.4c.9-.5 1.9-.9 2.8-1.3.9-.4 1.9-.9 2.8-1.3l1.1 2.4c-3.7 1.9-7.4 3.7-11.3 5.3-3.8 1.8-7.5 3.5-11.4 5.1-1.9.8-3.8 1.6-5.7 2.5l-5.6 2.7c-1.9.9-3.8 1.7-5.7 2.5-1 .4-1.9.9-2.8 1.4-.9.5-1.9.9-2.8 1.5l-.9-2.5zM167 281.3c3.7-1.9 7.4-3.7 11.3-5.3l5.7-2.4c1-.4 1.9-.9 2.8-1.3l2.8-1.4c3.7-1.9 7.5-3.6 11.3-5.2 1-.4 1.9-.9 2.8-1.3l2.8-1.4c.9-.5 1.9-.9 2.8-1.4.9-.4 1.9-.9 2.8-1.3l1.1 2.5c-3.7 1.9-7.4 3.7-11.3 5.3-3.8 1.8-7.5 3.5-11.4 5.1-1.9.8-3.8 1.6-5.7 2.5l-5.6 2.7c-1.9.9-3.8 1.7-5.7 2.5-1 .4-1.9.9-2.8 1.4-.9.5-1.9.9-2.8 1.5l-.9-2.5zM108.9 160.1c3.7-1.9 7.4-3.7 11.3-5.3l5.7-2.4c1-.4 1.9-.9 2.8-1.3l2.8-1.4c3.7-1.9 7.5-3.6 11.3-5.2 1-.4 1.9-.9 2.8-1.3l2.8-1.4c.9-.5 1.9-.9 2.8-1.4.9-.4 1.9-.9 2.8-1.3l1.1 2.4c-3.7 1.9-7.5 3.7-11.3 5.3-3.8 1.8-7.5 3.5-11.4 5.1-1.9.8-3.8 1.6-5.7 2.5l-5.6 2.7c-1.9.9-3.8 1.7-5.7 2.5-1 .4-1.9.9-2.8 1.4-.9.5-1.9.9-2.8 1.5l-.9-2.4zM113.2 169.3c3.7-1.9 7.4-3.7 11.3-5.3l5.7-2.4c1-.4 1.9-.9 2.8-1.3l2.8-1.4c3.7-1.9 7.5-3.6 11.3-5.2 1-.4 1.9-.9 2.8-1.3l2.8-1.4c.9-.5 1.9-.9 2.8-1.4.9-.4 1.9-.9 2.8-1.3l1.1 2.4c-3.7 1.9-7.5 3.7-11.3 5.3-3.8 1.8-7.5 3.5-11.4 5.1-1.9.8-3.8 1.6-5.7 2.5l-5.6 2.7c-1.9.9-3.8 1.7-5.7 2.5-1 .4-1.9.9-2.8 1.4-.9.5-1.9.9-2.8 1.5l-.9-2.4z"></path><path class="st3" d="M218.7 325.4l-51.5-43 1.9-2.3 45.9 38.3-4.5-48.1 2.9-.3z"></path><path class="st3" d="M197.8 307.9l18.5-8.1v21.5z"></path><path d="M128.1 140.6c1.2-.8 2.5-1.5 3.9-2 .7-.3 1.4-.5 2.1-.8.7-.3 1.3-.7 1.9-1.1.6-.4 1.2-.8 1.9-1.1.7-.3 1.3-.6 2-.8.7-.3 1.3-.7 1.9-1.1.3-.2.6-.3 1-.5.3-.2.7-.3 1-.5.7-.3 1.5.1 1.8.8.2.6 0 1.3-.5 1.6-.6.4-1.2.8-1.9 1.1-.6.4-1.3.6-2 .9-1.3.7-2.6 1.3-4 1.8-.7.3-1.4.5-2 .9-.7.3-1.3.7-1.9 1.1-.6.4-1.3.6-2 .9-.7.3-1.3.7-1.8 1.2-.6.5-1.4.4-1.9-.1s-.4-1.4.1-1.9l.2-.1.2-.3z" fill="#5053ab"></path></g></svg>