<svg xmlns="http://www.w3.org/2000/svg" width="189" height="218" viewbox="0 0 189 218" preserveAspectRatio="none"><rect x="0" y="0" width="100%" height="100%" fill="rgb(54, 53, 52)"></rect><rect x="-20" y="-20" width="40" height="40" stroke="#000" stroke-opacity="0.02" fill="#222" fill-opacity="0.15" stroke-width="1"></rect><rect x="169.28203230276" y="-20" width="40" height="40" stroke="#000" stroke-opacity="0.02" fill="#222" fill-opacity="0.15" stroke-width="1"></rect><rect x="-20" y="198.56406460551" width="40" height="40" stroke="#000" stroke-opacity="0.02" fill="#222" fill-opacity="0.15" stroke-width="1"></rect><rect x="169.28203230276" y="198.56406460551" width="40" height="40" stroke="#000" stroke-opacity="0.02" fill="#222" fill-opacity="0.15" stroke-width="1"></rect><rect x="74.641016151378" y="34.641016151378" width="40" height="40" stroke="#000" stroke-opacity="0.02" fill="#222" fill-opacity="0.098" stroke-width="1"></rect><rect x="-20" y="89.282032302755" width="40" height="40" stroke="#000" stroke-opacity="0.02" fill="#ddd" fill-opacity="0.14133333333333" stroke-width="1"></rect><rect x="169.28203230276" y="89.282032302755" width="40" height="40" stroke="#000" stroke-opacity="0.02" fill="#ddd" fill-opacity="0.14133333333333" stroke-width="1"></rect><rect x="74.641016151378" y="143.92304845413" width="40" height="40" stroke="#000" stroke-opacity="0.02" fill="#222" fill-opacity="0.063333333333333" stroke-width="1"></rect><polyline points="0, 0, 34.641016151378, 20, 0, 40, 0, 0" stroke="#000" stroke-opacity="0.02" fill="#222" fill-opacity="0.080666666666667" stroke-width="1" transform="translate(20, -20) rotate(0, 20, 17.320508075689)"></polyline><polyline points="0, 0, 34.641016151378, 20, 0, 40, 0, 0" stroke="#000" stroke-opacity="0.02" fill="#222" fill-opacity="0.080666666666667" stroke-width="1" transform="translate(20, 238.56406460551) rotate(0, 20, 17.320508075689) scale(1, -1)"></polyline><polyline points="0, 0, 34.641016151378, 20, 0, 40, 0, 0" stroke="#000" stroke-opacity="0.02" fill="#ddd" fill-opacity="0.089333333333333" stroke-width="1" transform="translate(169.28203230276, -20) rotate(0, 20, 17.320508075689) scale(-1, 1)"></polyline><polyline points="0, 0, 34.641016151378, 20, 0, 40, 0, 0" stroke="#000" stroke-opacity="0.02" fill="#ddd" fill-opacity="0.089333333333333" stroke-width="1" transform="translate(169.28203230276, 238.56406460551) rotate(0, 20, 17.320508075689) scale(-1, -1)"></polyline><polyline points="0, 0, 34.641016151378, 20, 0, 40, 0, 0" stroke="#000" stroke-opacity="0.02" fill="#222" fill-opacity="0.098" stroke-width="1" transform="translate(114.64101615138, 34.641016151378)"></polyline><polyline points="0, 0, 34.641016151378, 20, 0, 40, 0, 0" stroke="#000" stroke-opacity="0.02" fill="#ddd" fill-opacity="0.054666666666667" stroke-width="1" transform="translate(74.641016151378, 34.641016151378) scale(-1, 1)"></polyline><polyline points="0, 0, 34.641016151378, 20, 0, 40, 0, 0" stroke="#000" stroke-opacity="0.02" fill="#ddd" fill-opacity="0.14133333333333" stroke-width="1" transform="translate(114.64101615138, 183.92304845413) scale(1, -1)"></polyline><polyline points="0, 0, 34.641016151378, 20, 0, 40, 0, 0" stroke="#000" stroke-opacity="0.02" fill="#222" fill-opacity="0.098" stroke-width="1" transform="translate(74.641016151378, 183.92304845413) scale(-1, -1)"></polyline><polyline points="0, 0, 34.641016151378, 20, 0, 40, 0, 0" stroke="#000" stroke-opacity="0.02" fill="#222" fill-opacity="0.028666666666667" stroke-width="1" transform="translate(20, 89.282032302755)"></polyline><polyline points="0, 0, 34.641016151378, 20, 0, 40, 0, 0" stroke="#000" stroke-opacity="0.02" fill="#ddd" fill-opacity="0.124" stroke-width="1" transform="translate(169.28203230276, 89.282032302755) scale(-1, 1)"></polyline><rect x="0" y="0" width="40" height="40" stroke="#000" stroke-opacity="0.02" fill="#222" fill-opacity="0.080666666666667" stroke-width="1" transform="translate(20, 20) rotate(-30, 0, 0)"></rect><rect x="0" y="0" width="40" height="40" stroke="#000" stroke-opacity="0.02" fill="#222" fill-opacity="0.080666666666667" stroke-width="1" transform="scale(-1, 1) translate(-169.28203230276, 20) rotate(-30, 0, 0)"></rect><rect x="0" y="0" width="40" height="40" stroke="#000" stroke-opacity="0.02" fill="#222" fill-opacity="0.13266666666667" stroke-width="1" transform="translate(20, 49.282032302755) rotate(30, 0, 40)"></rect><rect x="0" y="0" width="40" height="40" stroke="#000" stroke-opacity="0.02" fill="#222" fill-opacity="0.13266666666667" stroke-width="1" transform="scale(-1, 1) translate(-169.28203230276, 49.282032302755) rotate(30, 0, 40)"></rect><rect x="0" y="0" width="40" height="40" stroke="#000" stroke-opacity="0.02" fill="#ddd" fill-opacity="0.124" stroke-width="1" transform="scale(1, -1) translate(20, -169.28203230276) rotate(30, 0, 40)"></rect><rect x="0" y="0" width="40" height="40" stroke="#000" stroke-opacity="0.02" fill="#ddd" fill-opacity="0.02" stroke-width="1" transform="scale(-1, -1) translate(-169.28203230276, -169.28203230276) rotate(30, 0, 40)"></rect><rect x="0" y="0" width="40" height="40" stroke="#000" stroke-opacity="0.02" fill="#ddd" fill-opacity="0.072" stroke-width="1" transform="scale(1, -1) translate(20, -198.56406460551) rotate(-30, 0, 0)"></rect><rect x="0" y="0" width="40" height="40" stroke="#000" stroke-opacity="0.02" fill="#222" fill-opacity="0.080666666666667" stroke-width="1" transform="scale(-1, -1) translate(-169.28203230276, -198.56406460551) rotate(-30, 0, 0)"></rect></svg>