<svg xmlns="http://www.w3.org/2000/svg" id="Layer_1" viewBox="0 0 470 350"><style>    .st0{fill:#d5daea}.st1{fill:#fff}.st2{fill:#0c1238}.st6{fill:none;stroke:#fff;stroke-width:2;stroke-miterlimit:10}  </style><path class="st0" d="M328.4 207.1l17-.2 16.9-.2c11.2-.1 22.5-.2 33.7-.1l-1.4 1.4.2-44.2v-22.1l-.1-22.1 1.3 1.3-17.1.1h-17.1l-34.3-.1 1.2-1.2v43.7c0 7.3-.1 14.6-.1 21.9l-.2 21.8zm-1.9 1.9l-.2-22.3c-.1-7.4-.2-14.9-.2-22.4l-.1-22.4V118.1h35.7c11.4 0 22.9.1 34.3.1h1.3v1.3c0 14.7-.2 29.5-.1 44.2l.1 44.2v1.2h-1.2c-5.8 0-11.6 0-17.4-.1l-17.4-.1c-5.8-.1-11.6 0-17.4-.1l-17.4.2zM107.4 224l17-.2 16.9-.2c11.2-.1 22.5-.2 33.7-.1l-1.4 1.4.2-44.2v-22.1l-.1-22.1 1.3 1.3-17.1.1h-17.1l-34.3-.1 1.2-1.2v43.7c0 7.3-.1 14.6-.1 21.9l-.2 21.8zm-1.9 1.9l-.2-22.3c-.1-7.4-.2-14.9-.2-22.4l-.1-22.4V135h35.7c11.4 0 22.9.1 34.3.1h1.3v1.3c0 14.7-.2 29.5-.1 44.2l.1 44.2v1.2h-1.2c-5.8 0-11.6 0-17.4-.1l-17.4-.1c-5.8-.1-11.6 0-17.4-.1l-17.4.2z"></path><path class="st1" d="M126.5 96.6h218.1v185.1H126.5V96.6z"></path><path class="st2" d="M284.7 142.5c4.2-.1 8.3-.2 12.5-.1 2.1.1 4.2.2 6.2.2 1 .1 2.1 0 3.1 0l3.1-.1c4.2-.2 8.3-.1 12.5.1h3.1l3.1-.1c1-.1 2.1 0 3.1 0h3.1v2.7c-4.2.2-8.3.2-12.5.1-4.2 0-8.3 0-12.5-.1-2.1 0-4.2-.2-6.2-.1l-6.2.1c-2.1 0-4.2-.1-6.2-.1-1-.1-2.1.1-3.1.1s-2.1.1-3.1.2v-2.9zm0 14.3c3.3-.1 6.6-.2 9.9-.1 1.6.1 3.3.2 5 .2 1.6.1 3.3 0 5-.1 3.3-.2 6.6-.1 9.9.1h2.5l2.5-.1c.8-.1 1.6 0 2.5 0h2.5v2.7c-3.3.2-6.6.2-9.9.1-3.3 0-6.6 0-9.9-.1-1.6 0-3.3-.2-5-.1l-5 .1c-1.6.1-3.3-.1-5-.1-1.6 0-3.3.1-5 .2v-2.8zm0 28.6c3.3-.1 6.6-.2 9.9-.1 1.6.1 3.3.2 5 .2 1.6.1 3.3 0 5-.1 3.3-.2 6.6-.1 9.9.1h2.5l2.5-.1c.8-.1 1.6 0 2.5 0h2.5v2.7c-3.3.2-6.6.2-9.9.1-3.3 0-6.6 0-9.9-.1-1.6 0-3.3-.2-5-.1l-5 .1c-1.6.1-3.3-.1-5-.1-1.6 0-3.3.1-5 .2v-2.8zm0-14.3c2.9-.1 5.7-.2 8.6-.1 1.4.1 2.9.2 4.3.2 1.4.1 2.9 0 4.3-.1 2.9-.2 5.7-.1 8.6.1h2.1l2.1-.1c.7-.1 1.4 0 2.1 0h2.1v2.7c-1.4.1-2.9.1-4.3.2s-2.9-.1-4.3-.1c-2.9 0-5.7 0-8.6-.1-1.4 0-2.9-.2-4.3-.1l-4.3.1c-1.4.1-2.9-.1-4.3-.1s-2.9.1-4.3.2l.2-2.8z"></path><path class="st2" d="M347 282.1l-85 .2-45.1.2c-15 0-30.1.1-45.1 0l-45.1-.1c-.7 0-1.3-.6-1.3-1.3 0-15.4.1-107.7.1-123.1l-.1-52c0-.7.6-1.3 1.3-1.3l44.8-.1 44.8.1 44.8.1h84.8c.7 0 1.3.6 1.3 1.3 0 15.5.1 37.1 0 52.6l-.2 123.4zm-1.9-1.9l-.4-122.7c-.1-15.2-.1-36.3-.1-51.5l1.5 1.5-129.7-.1h-44.8l-44.8-.1 1.3-1.3-.1 52v123.1l-1.2-1.2h44.6c14.9 0 29.7.1 44.6.1 14.9.1 29.8.2 44.6.1l84.5.1zm-70.9-175.3c.2 16.8.3 33.6.3 50.4l-.1 25.2c0 4.2 0 8.4.1 12.6l.1 12.6.1 12.6.1 6.3v31.5l.1 12.6.2 7.6c.1 8.4.1-3.2.1 5.2h-2.7c-.1-8.4-.2 3.2-.3-5.2v-20.2c-.1-16.8-.2-33.6-.1-50.4 0-8.4.1-16.8 0-25.2l-.2-25.2c-.1-8.4 0-16.8 0-25.2 0-4.2-.1-8.4-.1-12.6s-.1-8.4-.2-12.6h2.6z"></path><path d="M126.5 78.9H347v25.9H126.5V78.9z" fill="#0c1238" stroke="#0c1238" stroke-width="2" stroke-linecap="round" stroke-linejoin="round" stroke-miterlimit="10"></path><circle class="st1" cx="282.2" cy="92" r="6.1"></circle><path class="st1" d="M295.4 86h12.1v12.1h-12.1V86zm32.3 12.1h-12.1l6.1-12.1 6 12.1z"></path><path d="M163.8 228.4h116.6v79.8H163.8v-79.8zm115.5 1.8l-29 .5c-9.7.2-19.2.2-28.9.3-9.6.1-19.2.1-28.8 0l-28.8-.2 1.4-2.3-.1 20v20l.1 39.9-1.4-2.4 29.1-.2 29.1.2 29.1.2h14.6l14.6-.1-1.5 2.4-.1-19.5.1-19.5.5-39.3zm2.2-3.5l.4 40.6.2 20.5v23.3h-1.7c-9.7 0-19.4-.1-29.1-.2h-58.2l-29.1-.2h-1.4v-2.3l.1-39.9c0-6.7.1-13.3 0-20v-22.1h1.3l29.4-.1h14.7l14.7.2 14.7.2 7.3.1h7.4l29.3-.1z" fill="#ffc04d"></path><path d="M87.2 64h138.7v141.3H87.2V64zm137.4 3.1l-34.5.8c-11.5.3-22.9.4-34.3.5-11.4.1-22.9.2-34.3 0L87.2 68l1.7-4.1-.1 35.3v35.3l.1 70.7-1.7-4.2 34.7-.3 34.7.3 34.7.3h17.3l17.3-.2-1.7 4.2-.1-34.5.1-34.5.4-69.2zm2.6-6.3l.5 71.9.2 36.2V210h-2c-11.6 0-23.1-.1-34.7-.3h-69.4l-34.7-.4h-1.7v-4.1l.1-70.7c0-11.8.1-23.5 0-35.3v-39H87l35-.1h17.5l17.5.3 17.5.3 8.7.1h44z" fill="#6c74c4" stroke="#6c74c4" stroke-width="3" stroke-linecap="round" stroke-linejoin="round" stroke-miterlimit="10"></path><path class="st1" d="M199.9 113.5h-3.2c-1.6 0-1.6-.2-3.2-.2s-1.6.4-3.2.4-1.6-.1-3.2-.1-1.6-.3-3.2-.3-1.6.1-3.2.1-1.6.2-3.2.2c-.1 0-.4-.3-.4-.4-.3-1.6-.1-1.6-.4-3.2l-.6-3.2c-.2-.9-1.1-1.4-2.1-1.4-1.5 0-1.5-.2-3-.2h-3c-1.5 0-1.5-.2-3-.2s-1.5.1-3 .1-1.5-.1-3-.1-1.5.4-3 .4-1.5-.1-3-.1-1.5-.2-3-.2h-3c-1.5 0-1.5.4-3 .4s-1.5-.2-3-.2-1.5-.1-3-.1c-.9 0-1.9.7-2.1 1.6-.3 1.6-.2 1.6-.5 3.2s-.4 1.6-.7 3.2c0 .1-.1.1-.2.1-1.6 0-1.6-.1-3.2-.1h-3.2c-1.6 0-1.6.3-3.2.3h-3.2c-1.6 0-1.6-.3-3.2-.3h-3.2c-1.6 0-1.6-.1-3.2-.1-1.1 0-1.9 1.1-1.9 2.2v6.2c0 1.6-.2 1.6-.2 3.1 0 1.6.4 1.6.4 3.1 0 1.6-.4 1.6-.4 3.1v6.2c0 1.6.2 1.6.2 3.1 0 1.6-.3 1.6-.3 3.1 0 1.6.2 1.6.2 3.1 0 1.6.2 1.6.2 3.1 0 1.6-.1 1.6-.1 3.1 0 1.6.2 1.6.2 3.1 0 1.6-.3 1.6-.3 3.1s-.2 1.6-.2 3.1c0 1.1 1.1 2.1 2.2 2.1h3c1.5 0 1.5-.1 3-.1s1.5-.2 3-.2 1.5.3 3 .3 1.5-.2 3-.2 1.5.3 3 .3 1.5-.3 3-.3 1.5.3 3 .3 1.5.1 3 .1 1.5-.3 3-.3h3c1.5 0 1.5-.1 3-.1h3c1.5 0 1.5.1 3 .1s1.5.2 3 .2 1.5-.1 3-.1 1.5.4 3 .4h6c1.5 0 1.5-.2 3-.2s1.5.1 3 .1 1.5-.3 3-.3 1.5.1 3 .1 1.5.1 3 .1h3c1.5 0 1.5-.2 3-.2s1.5.3 3 .3 1.5.1 3 .1 1.5-.1 3-.1c1.1 0 2.1-1 2.1-2.1 0-1.6.1-1.6.1-3.1v-3.1c0-1.6-.1-1.6-.1-3.1 0-1.6.2-1.6.2-3.1 0-1.6-.2-1.6-.2-3.1v-3.1c0-1.6-.1-1.6-.1-3.1 0-1.6.3-1.6.3-3.1 0-1.6-.3-1.6-.3-3.1 0-1.6-.1-1.6-.1-3.1 0-1.6.3-1.6.3-3.1 0-1.6-.3-1.6-.3-3.1 0-1.6-.1-1.6-.1-3.1 0-1.6.4-1.6.4-3.1 0-1.6-.3-1.6-.3-3.1.9-1.4 0-2.1-1.1-2.1zm.5 48.8c0 .2-.3.4-.4.4-1.5 0-1.5-.2-3-.2s-1.5.4-3 .4-1.5-.1-3-.1-1.5-.3-3-.3-1.5.1-3 .1-1.5.2-3 .2-1.5-.1-3-.1-1.5-.2-3-.2h-3c-1.5 0-1.5.3-3 .3s-1.5-.2-3-.2h-3c-1.5 0-1.5-.2-3-.2s-1.5.1-3 .1-1.5-.1-3-.1-1.5.4-3 .4-1.5-.1-3-.1-1.5-.2-3-.2h-3c-1.5 0-1.5.4-3 .4s-1.5-.2-3-.2-1.5-.1-3-.1-1.5-.1-3-.1-1.5.2-3 .2-1.5-.1-3-.1-1.5-.1-3-.1-1.5-.1-3-.1h-3c-1.5 0-1.5.3-3 .3-.2 0-.4-.2-.4-.4 0-1.6.3-1.6.3-3.1v-3.1c0-1.6.1-1.6.1-3.1 0-1.6-.3-1.6-.3-3.1v-3.1-3.1c0-1.6.2-1.6.2-3.1 0-1.6-.4-1.6-.4-3.1 0-1.6.4-1.6.4-3.1v-3.1-3.1c0-1.6-.2-1.6-.2-3.1 0-1.6.3-1.6.3-3.1 0-1.6-.2-1.6-.2-3.1 0-1.6-.2-1.6-.2-3.1 0-.2.2-.3.4-.3 1.6 0 1.6-.2 3.2-.2s1.6.3 3.2.3 1.6.2 3.2.2 1.6-.2 3.2-.2h3.2c1.6 0 1.6-.1 3.2-.1s1.6-.2 3.2-.2c.9 0 1.8-.4 2-1.4.3-1.6.1-1.6.4-3.2.3-1.6.6-1.5.9-3.1 0-.1 0-.4.2-.4 1.5 0 1.5.3 3 .3s1.5.1 3 .1 1.5-.3 3-.3h3c1.5 0 1.5-.1 3-.1h3c1.5 0 1.5.1 3 .1s1.5.2 3 .2 1.5-.1 3-.1 1.5.4 3 .4h6c.1 0 .2-.1.2 0 .3 1.6.2 1.6.5 3.2s.6 1.5.9 3.1c.2.9.9 1.6 1.9 1.6 1.6 0 1.6.1 3.2.1h3.2c1.6 0 1.6-.2 3.2-.2s1.6.3 3.2.3 1.6.1 3.2.1 1.6-.1 3.2-.1 1.6-.1 3.2-.1c.2 0 .1.1.1.2v3.1c0 1.6.1 1.6.1 3.1 0 1.6-.2 1.6-.2 3.1 0 1.6.2 1.6.2 3.1v3.1c0 1.6.1 1.6.1 3.1 0 1.6-.3 1.6-.3 3.1 0 1.6.3 1.6.3 3.1 0 1.6.1 1.6.1 3.1 0 1.6-.3 1.6-.3 3.1 0 1.6.3 1.6.3 3.1 0 1.6.1 1.6.1 3.1 0 1.6-.4 1.6-.4 3.1 0 1.6.2 1.6.3 3.1-.9 1.3-.8 1.3-.8 2.9z"></path><path class="st6" d="M176.5 112l-1.1-4.8c-.2-.8-.9-1.4-1.7-1.4h-34.8c-.8 0-1.5.6-1.7 1.4l-1.1 4.8c-.2.8-.9 1.4-1.7 1.4h-22c-.9 0-1.7.8-1.7 1.7v47.1c0 .9.8 1.7 1.7 1.7h86.8c.9 0 1.7-.8 1.7-1.7v-47.1c0-.9-.8-1.7-1.7-1.7h-21.1c-.7 0-1.4-.6-1.6-1.4z"></path><circle class="st6" cx="155.9" cy="137.6" r="17.4"></circle><path class="st1" d="M156.2 120c-1.1 0-2.1.2-3.1.3-1 .2-2 .5-3 .9s-2.1.4-3 .9-1.5 1.5-2.3 2.1c-.8.7-1.5 1.4-2.2 2.2-.7.8-1.6 1.4-2.1 2.3s-.8 1.9-1.2 2.9-.7 2-.9 3-.2 2.1-.2 3.1c0 1.1.3 2.1.5 3.1s.3 2.1.6 3c.4 1 .9 1.8 1.4 2.7s.9 1.9 1.5 2.7c.7.8 1.4 1.6 2.2 2.3s1.9.9 2.8 1.5c.9.5 1.8.9 2.8 1.3 1 .4 1.9.7 3 .9 1 .2 2 .3 3.1.3s2.1.2 3.1 0 2.1-.5 3-.8c1-.4 1.8-1 2.7-1.6.9-.5 1.7-1.1 2.5-1.8s1.7-1.3 2.3-2.1c.7-.8 1.3-1.7 1.8-2.6.5-.9 1-1.8 1.3-2.8.4-1 .4-2 .6-3.1.2-1 .7-2 .7-3.1s-.2-2.1-.4-3.1-.7-2-1-2.9c-.4-1-.6-2-1.1-2.9-.5-.9-1-1.8-1.7-2.6s-1.6-1.4-2.4-2c-.8-.7-1.6-1.4-2.5-1.9s-1.8-1-2.8-1.3c-1-.4-2-.5-3.1-.7-.8-.1-1.9-.2-2.9-.2zm0 34.1c-1.1 0-2.2 0-3.2-.2-1.1-.2-2.1-.5-3.1-.9s-1.7-1.3-2.6-1.9c-.9-.6-2-1-2.7-1.7s-1.5-1.6-2.1-2.5-.7-2-1.1-3c-.4-1-.9-1.9-1.1-3-.2-1-.2-2.1-.2-3.1 0-1.1 0-2.1.2-3.2s.3-2.1.7-3.1 1.1-1.9 1.6-2.7c.6-.9 1.2-1.8 1.9-2.6s1.8-1.2 2.7-1.8c.9-.6 1.8-1 2.8-1.4s1.9-1.1 2.9-1.3c1-.2 2.1-.3 3.2-.3s2.2.2 3.2.4c1.1.2 2.1.6 3 1 1 .4 1.8 1.1 2.7 1.7s1.7 1.3 2.4 2 1.6 1.4 2.2 2.3c.6.9 1.1 1.8 1.5 2.8s.5 2 .8 3.1c.2 1 .3 2.1.3 3.1 0 1.1-.1 2.1-.3 3.1-.2 1.1-.3 2.1-.7 3.1s-1.2 1.7-1.8 2.6c-.6.9-1.1 1.8-1.9 2.5-.7.7-1.4 1.6-2.3 2.2-.9.6-1.9.9-2.9 1.3s-2 .6-3 .8c-1 .3-2 .7-3.1.7z"></path><circle class="st1" cx="180.1" cy="124.3" r="2.9"></circle><g><path class="st2" d="M255.1 252.3h-2.4c-1.2 0-1.2-.2-2.4-.2s-1.2.3-2.4.3-1.2-.1-2.4-.1-1.2-.2-2.4-.2h-2.4c-1.2 0-1.2.2-2.4.2-.1 0-.3-.2-.3-.3-.2-1.2-.1-1.2-.3-2.4s-.2-1.2-.5-2.4c-.1-.7-.8-1.1-1.6-1.1-1.1 0-1.1-.2-2.2-.2h-2.2c-1.1 0-1.1-.1-2.2-.1s-1.1.1-2.2.1-1.1-.1-2.2-.1-1.1.3-2.2.3-1.1-.1-2.2-.1-1.1-.1-2.2-.1h-2.2c-1.1 0-1.1.3-2.2.3s-1.1-.1-2.2-.1-1.1-.1-2.2-.1c-.7 0-1.4.5-1.6 1.2-.2 1.2-.1 1.2-.4 2.4-.2 1.2-.3 1.2-.5 2.4 0 .1-.1.1-.2.1-1.2 0-1.2-.1-2.4-.1h-2.4c-1.2 0-1.2.3-2.4.3h-2.4c-1.2 0-1.2-.2-2.4-.2h-2.4c-1.2 0-1.2-.1-2.4-.1-.8 0-1.5.8-1.5 1.7v4.8c0 1.2-.1 1.2-.1 2.4s.3 1.2.3 2.4-.3 1.2-.3 2.4v4.8c0 1.2.2 1.2.2 2.4s-.3 1.2-.3 2.4.1 1.2.1 2.4.1 1.2.1 2.4v2.4c0 1.2.1 1.2.1 2.4s-.2 1.2-.2 2.4-.1 1.2-.1 2.4c0 .8.8 1.6 1.7 1.6h2.3c1.1 0 1.1-.1 2.3-.1 1.1 0 1.1-.2 2.3-.2 1.1 0 1.1.2 2.3.2 1.1 0 1.1-.2 2.3-.2 1.1 0 1.1.2 2.3.2 1.1 0 1.1-.2 2.3-.2 1.1 0 1.1.2 2.3.2 1.1 0 1.1.1 2.3.1 1.1 0 1.1-.3 2.3-.3H219.6c1.1 0 1.1.1 2.3.1 1.1 0 1.1.1 2.3.1 1.1 0 1.1-.1 2.3-.1 1.1 0 1.1.3 2.3.3h4.6c1.1 0 1.1-.1 2.3-.1 1.1 0 1.1.1 2.3.1 1.1 0 1.1-.2 2.3-.2 1.1 0 1.1.1 2.3.1h4.6c1.1 0 1.1-.1 2.3-.1 1.1 0 1.1.2 2.3.2 1.1 0 1.1.1 2.3.1s1.1-.1 2.3-.1c.8 0 .6-.8.6-1.6 0-1.2.1-1.2.1-2.4V285c0-1.2-.1-1.2-.1-2.4s.2-1.2.2-2.4-.2-1.2-.2-2.4v-2.4c0-1.2-.1-1.2-.1-2.4s.3-1.2.3-2.4-.2-1.2-.2-2.4-.1-1.2-.1-2.4.2-1.2.2-2.4-.2-1.2-.2-2.4-.1-1.2-.1-2.4.3-1.2.3-2.4-.2-1.2-.2-2.4c-1.3-.9-1-1.5-1.8-1.5zm.3 36.9c0 .1-.2.3-.3.3-1.1 0-1.1-.2-2.3-.2-1.1 0-1.1.3-2.3.3-1.1 0-1.1-.1-2.3-.1-1.1 0-1.1-.2-2.3-.2h-2.3c-1.1 0-1.1.2-2.3.2-1.1 0-1.1-.1-2.3-.1-1.1 0-1.1-.2-2.3-.2h-2.3c-1.1 0-1.1.2-2.3.2-1.1 0-1.1-.2-2.3-.2h-2.3c-1.1 0-1.1-.1-2.3-.1-1.1 0-1.1.1-2.3.1-1.1 0-1.1-.1-2.3-.1-1.1 0-1.1.3-2.3.3-1.1 0-1.1-.1-2.3-.1-1.1 0-1.1-.1-2.3-.1h-2.3c-1.1 0-1.1.3-2.3.3-1.1 0-1.1-.1-2.3-.1-1.1 0-1.1-.1-2.3-.1-1.1 0-1.1-.1-2.3-.1-1.1 0-1.1.1-2.3.1-1.1 0-1.1-.1-2.3-.1-1.1 0-1.1-.1-2.3-.1-1.1 0-1.1-.1-2.3-.1h-2.3c-1.2 0-1.1.3-2.3.3-.1 0-.3-.2-.3-.3 0-1.2.2-1.2.2-2.4v-2.4c0-1.2.1-1.2.1-2.4s-.2-1.2-.2-2.4V277v-2.4c0-1.2.1-1.2.1-2.4s-.3-1.2-.3-2.4.3-1.2.3-2.4V265v-2.4c0-1.2-.2-1.2-.2-2.4s.3-1.2.3-2.4-.1-1.2-.1-2.4-.1-1.2-.1-2.4c0-.1.2-.2.3-.2 1.2 0 1.2-.1 2.4-.1s1.2.2 2.4.2 1.2.1 2.4.1 1.2-.1 2.4-.1h2.4c1.2 0 1.2-.1 2.4-.1s1.2-.2 2.4-.2c.7 0 1.4-.3 1.5-1 .2-1.2.1-1.2.3-2.4s.5-1.2.7-2.4c0-.1 0-.3.1-.3 1.1 0 1.1.2 2.2.2s1.1.1 2.2.1 1.1-.3 2.2-.3H221.1c1.1 0 1.1.1 2.2.1s1.1.1 2.2.1 1.1-.1 2.2-.1 1.1.3 2.2.3h6.4c.1 0 .2 1.2.5 2.4s.5 1.2.7 2.4c.1.7.7 1.2 1.4 1.2h2.8c1.2 0 1.2-.1 2.4-.1s1.2.2 2.4.2 1.2.1 2.4.1 1.2-.1 2.4-.1 3.2-.1 4.4-.1c.1 0 .1 0 .1.2v2.4c0 1.2.1 1.2.1 2.4s-.2 1.2-.2 2.4.2 1.2.2 2.4v2.4c0 1.2.1 1.2.1 2.4s-.3 1.2-.3 2.4.2 1.2.2 2.4.1 1.2.1 2.4-.2 1.2-.2 2.4.2 1.2.2 2.4.1 1.2.1 2.4-.3 1.2-.3 2.4.2 1.2.2 2.4c1.4 1.3-.6 1.3-.6 2.5z"></path><path class="st2" d="M254.6 291.4h-65.5c-1.3 0-2.3-1-2.3-2.3v-35.5c0-1.3 1-2.3 2.3-2.3h16.6c.1 0 .2-.1.3-.2l.9-3.6c.2-1 1.1-1.8 2.2-1.8h26.3c1.1 0 2 .8 2.2 1.8l.9 3.6c0 .1.1.2.3.2h15.9c1.3 0 2.3 1 2.3 2.3v35.5c-.1 1.2-1.2 2.3-2.4 2.3zm-65.5-38.1c-.2 0-.3.1-.3.3v35.5c0 .2.1.3.3.3h65.5c.2 0 .3-.1.3-.3v-35.5c0-.2-.1-.3-.3-.3h-15.9c-1.1 0-2-.8-2.2-1.8l-.9-3.6c0-.2-.1-.3-.3-.3H209c-.1 0-.2.1-.3.2l-.9 3.6c-.2 1-1.1 1.8-2.2 1.8h-16.5v.1z"></path><path class="st2" d="M221.8 284.7c-7.8 0-14.2-6.3-14.2-14.2s6.4-14.2 14.2-14.2 14.2 6.3 14.2 14.2-6.4 14.2-14.2 14.2zm0-26.3c-6.7 0-12.2 5.5-12.2 12.2s5.5 12.2 12.2 12.2 12.2-5.5 12.2-12.2-5.5-12.2-12.2-12.2z"></path><path class="st2" d="M222.1 257.3c-.8 0-1.6.1-2.3.3-.8.1-1.5.4-2.2.7-.7.3-1.6.3-2.3.7-.7.4-1.1 1.1-1.7 1.6-.6.5-1.1 1.1-1.6 1.7s-1.2 1.1-1.6 1.7c-.4.7-.6 1.5-.9 2.2-.3.7-.5 1.5-.7 2.3-.1.8-.1 1.6-.1 2.4s.2 1.6.4 2.3c.1.8.2 1.6.5 2.3.3.7.7 1.4 1.1 2.1.4.7.7 1.5 1.2 2.1s1 1.2 1.7 1.7c.6.5 1.4.7 2.1 1.1.7.4 1.4.7 2.1 1 .7.3 1.4.5 2.2.7.8.1 1.5.2 2.3.2s1.6.1 2.4 0c.8-.1 1.6-.3 2.3-.6.7-.3 1.4-.8 2-1.2.7-.4 1.3-.8 1.9-1.3.6-.5 1.2-1 1.8-1.6.5-.6.9-1.3 1.3-1.9.4-.7.7-1.4 1-2.1s.3-1.5.5-2.3c.1-.8.5-1.5.5-2.3s-.2-1.6-.3-2.4-.5-1.5-.8-2.2-.4-1.5-.8-2.2c-.4-.7-.8-1.4-1.3-2s-1.2-1-1.8-1.5-1.2-1-1.9-1.4-1.4-.7-2.1-1c-.7-.3-1.5-.4-2.3-.5-1-.5-1.8-.6-2.6-.6zm0 25.7c-.8 0-1.6 0-2.4-.2-.8-.2-1.6-.3-2.3-.7-.7-.3-1.3-1-2-1.4s-1.5-.7-2-1.3c-.6-.6-1.1-1.2-1.6-1.9-.4-.7-.5-1.5-.8-2.3-.3-.7-.7-1.4-.8-2.2-.2-.8-.2-1.6-.2-2.4s0-1.6.2-2.4.2-1.6.5-2.3c.3-.7.8-1.4 1.2-2.1s.9-1.4 1.4-1.9c.6-.6 1.3-.9 2-1.3s1.4-.8 2.1-1.1c.7-.3 1.4-.8 2.2-1s1.6-.2 2.4-.2c.8 0 1.6.1 2.4.3.8.2 1.6.4 2.3.7.7.3 1.4.9 2 1.3.7.4 1.3.9 1.8 1.5s1.2 1.1 1.7 1.7c.4.7.8 1.4 1.1 2.1s.4 1.5.6 2.3c.2.8.3 1.6.3 2.4s-.1 1.6-.2 2.4c-.2.8-.3 1.6-.6 2.3-.3.7-.9 1.3-1.4 2-.4.7-.9 1.3-1.4 1.9-.6.6-1.1 1.2-1.7 1.7-.7.4-1.4.7-2.2 1-.7.3-1.5.4-2.3.6-.7.2-1.5.5-2.3.5z"></path><circle class="st2" cx="240.1" cy="260.5" r="2.2"></circle></g></svg>