<svg xmlns="http://www.w3.org/2000/svg" viewBox="0 0 24 24" id="yoast"><path fill="#962460" d="M1.495,17.827V7.383c0-1.968,1.653-3.574,3.692-3.574h9.19l0.36-0.961H5.187C2.59,2.848,0.5,4.876,0.5,7.383v10.438c0,2.507,2.116,4.551,4.688,4.551h0.621v-0.97C2.773,21.402,1.495,19.626,1.495,17.827L1.495,17.827z"></path><path fill="#73AE26" d="M16.948,0l-5.247,14.187L9.114,6.224H5.962c4.245,10.708,4.215,10.327,4.215,11.35c0,1.292-0.791,3.438-3.317,3.829V24c1.488-0.051,2.951-0.566,4.02-1.663c2.002-2.055,2.099-3.112,9.482-22.337H16.948L16.948,0z"></path><path fill="#962460" d="M20.373,3.102l-0.344,0.894c1.595,0.559,2.474,1.546,2.474,3.198v14.191h-9.37c-0.071,0.157-0.283,0.498-0.621,0.987h10.987V7.194H23.5C23.5,5.292,22.515,3.792,20.373,3.102L20.373,3.102z"></path><path fill="#831F54" d="M1.495,12H0.5v5.821c0,2.507,2.116,4.551,4.688,4.551h0.621v-0.97c-3.035,0-4.313-1.776-4.313-3.574V12L1.495,12z"></path><path fill="#649721" d="M15.785,12H12.51l-0.809,2.187L10.991,12H8.263c1.932,4.831,1.914,4.786,1.914,5.573c0,1.292-0.791,3.438-3.317,3.829V24c1.488-0.051,2.951-0.566,4.02-1.663C12.34,20.839,12.787,19.87,15.785,12L15.785,12z"></path><path fill="#831F54" d="M23.499,12h-0.995v9.385h-9.37c-0.071,0.157-0.283,0.498-0.621,0.987h10.987V12L23.499,12z"></path></svg>